<svg id="eSWVUt6wnCM1" xmlns="http://www.w3.org/2000/svg" xmlns:xlink="http://www.w3.org/1999/xlink" viewBox="0 0 59 60" shape-rendering="geometricPrecision" text-rendering="geometricPrecision">

<g><path d="M46.5,0.210938c.175781.035156.175781.035156.355469.074218c0,.066406,0,.136719,0,.210938.050781,0,.097656,0,.144531,0c.019531.054687.042969.113281.0625.171875.0625.191406.0625.191406.222656.25.046875.125.046875.125.089844.285156.101562.316406.246094.550781.4375.820313.167969.246093.300781.503906.441406.761718.121094.21875.257813.429688.398438.640625.0625.113281.0625.113281.0625.253907.046875,0,.09375,0,.140625,0c0,.070312,0,.140624,0,.210937.046875,0,.097656,0,.144531,0c.03125.070313.058594.140625.089844.214844.125.285156.261718.570312.402344.851562.023437.046875.046874.097657.070312.148438.160156.320312.34375.566406.582031.839843.046875.113282.097657.234376.140625.351563.050782.074219.101563.148437.152344.226563.132812.199218.132812.199218.132812.339843.046876,0,.09375,0,.144532,0c.027344.066407.050781.132813.078125.203125.125.289063.285156.546875.449219.808594.191406.320312.367187.644531.542968.96875.269532.488281.546875.972656.875,1.425781.132813.214844.160156.378907.199219.625.042969.023438.089844.046875.140625.070313.023438.058594.042969.117187.066406.175781.066406.199219.066406.199219.292969.320313.097656.160156.097656.160156.199219.351562.035156.070312.074218.136719.113281.210938.035156.070312.074219.144531.113281.214843.273438.515625.273438.515625.585938,1.007813.136718.207031.210937.402344.285156.640625.058594.148437.058594.148437.273438.265625.070312.128906.140624.265625.203124.402344.167969.34375.351563.636718.582032.941406.046875.09375.09375.1875.140625.28125.050781.023437.097656.046875.144531.070312.058594.175782.101562.351563.144531.53125.082031.210938.191407.304688.355469.460938.089844.148437.175781.296875.253906.453125.042969.074219.082032.152343.125.234375.039063.078125.078125.152344.121094.234375.039062.070312.082031.144531.121094.222656.09375.199219.09375.199219.09375.480469.042968.019531.085937.035156.128906.054687.179688.105469.246094.195313.351562.371094.03125.050781.0625.097656.09375.152344.066407.132812.066407.132812.066407.273437.050781,0,.097656,0,.144531,0c.160156.433594.160156.699219,0,1.132813-.046875,0-.09375,0-.144531,0c0,.046875,0,.09375,0,.140625-.046875,0-.09375,0-.140625,0-.007813.039062-.015625.078125-.023438.121094-.058594.195312-.144531.347656-.261718.515624-.046876,0-.09375,0-.144532,0-.007812.042969-.019531.082032-.03125.128907-.03125.121093-.070312.246093-.109375.367187-.046875,0-.097656,0-.144531,0c0,.046875,0,.09375,0,.140625-.046875,0-.09375,0-.144531,0-.003907.070313-.007813.140625-.011719.210938-.039062.289062-.167969.476562-.328125.714843-.113281.175782-.171875.359376-.230469.558594-.046875,0-.09375,0-.140625,0c0,.09375,0,.1875,0,.285156-.046875,0-.097656,0-.144531,0-.007812.039063-.015625.082032-.023438.125-.054687.175782-.121093.269532-.238281.410157-.234375.292969-.402343.601562-.574219.933593-.09375.160157-.09375.160157-.234374.230469-.082032.148438-.082032.148438-.152344.320313-.027344.058594-.050782.117187-.078125.179687-.019531.042969-.035157.089844-.058594.132813-.042969,0-.089844,0-.140625,0-.011719.058594-.019531.113281-.03125.171875-.039062.183593-.039062.183593-.109375.324219-.050781,0-.097656,0-.144531,0c0,.070312,0,.140624,0,.214843-.046875,0-.09375,0-.144532,0-.003906.054688-.003906.109375-.007812.167969-.089844.359375-.265625.664062-.492188.960938-.046874,0-.09375,0-.140624,0-.007813.042968-.019532.082031-.027344.121093-.050782.1875-.132813.332031-.226563.5-.035156.054688-.066406.113281-.101562.171875-.023438.042969-.046875.085938-.074219.128906-.046875,0-.09375,0-.140625,0-.007813.046876-.011719.09375-.019531.140626-.09375.363281-.273438.679687-.484375.992187-.046875,0-.09375,0-.140625,0c0,.070313,0,.140625,0,.210937-.046875,0-.09375,0-.144532,0-.007812.066407-.015624.128907-.027343.195313-.039063.199219-.082031.339844-.1875.511719-.042969,0-.09375,0-.140625,0-.023438.1875-.046875.375-.070313.566406-.050781,0-.097656,0-.144531,0-.007812.042969-.015625.082031-.023438.125-.050781.171875-.117187.28125-.222656.425781-.03125.042969-.0625.085938-.09375.128907-.042968.050781-.042968.050781-.089844.097656-.046874,0-.09375,0-.140624,0-.011719.050781-.019532.101562-.027344.152344-.046875.214843-.113282.417968-.1875.628906-.046875,0-.09375,0-.144532,0c0,.046875,0,.09375,0,.140625-.046874,0-.09375,0-.140624,0-.007813.039062-.015626.078125-.027344.121093-.066406.238282-.195313.429688-.320313.640626-.078125.148437-.121093.277343-.152343.441406-.046876,0-.09375,0-.144532,0c0,.070312,0,.140625,0,.210937-.046875,0-.09375,0-.140625,0-.019531.050781-.039062.101563-.058593.152344-.09375.214844-.203126.398437-.332032.589844-.128906.195312-.253906.386719-.367187.59375-.035157.046875-.066407.097656-.101563.152343-.046875,0-.09375,0-.140625,0c0,.066407,0,.136719,0,.210938-.046875,0-.097656,0-.144531,0c0,.09375,0,.1875,0,.28125-.046875,0-.09375,0-.144531,0-.070313.210938-.140625.421875-.210938.636719-.046875,0-.097656,0-.144531,0c0,.070312,0,.140625,0,.214843-.046875,0-.09375,0-.144531,0c0,.070313,0,.136719,0,.210938-.046875,0-.09375,0-.140625,0c0,.09375,0,.1875,0,.285156-.046875,0-.09375,0-.144532,0-.007812.054688-.011718.113282-.023437.171875-.058594.304688-.15625.59375-.261719.886719-.046875,0-.09375,0-.140625,0c0,.070312,0,.140625,0,.210938-.046875,0-.097656,0-.144531,0c0,.070312,0,.140624,0,.214843-.046875,0-.09375,0-.144531,0c.023437.445313.109375.757813.359375,1.132813.078125.125.152344.25.230468.375.039063.058594.074219.117187.113282.179687.085937.152344.085937.152344.085937.292969.046875,0,.09375,0,.140625,0c0,.070312,0,.140625,0,.210938.046875,0,.09375,0,.144532,0c0,.070312,0,.140624,0,.214843.046874,0,.09375,0,.140624,0c.027344.0625.050782.125.078126.1875.21875.511719.480468,1.035157.820312,1.476563.292969.386718.519531.851562.675781,1.304687.046875,0,.09375,0,.140625,0c.058594.117188.121094.230469.179688.347657.03125.0625.066406.128906.101562.191406.078125.171875.078125.171875.078125.3125.046875,0,.09375,0,.140625,0c.015625.039062.027344.078125.039063.117187.019531.050781.035156.105469.054687.15625s.035156.101563.054688.152344c.0625.164063.0625.164063.28125.28125c0,.070313,0,.140625,0,.210937.046875,0,.09375,0,.140625,0c0,.070313,0,.140626,0,.214844.046875,0,.097656,0,.144531,0c.023438.066406.023438.066406.050781.132813.140625.371093.300781.699219.523438,1.027343.070312.113282.070312.113282.070312.253907.046875,0,.09375,0,.140625,0c0,.046875,0,.09375,0,.140625.046875,0,.09375,0,.144532,0c.015624.058594.015624.058594.035156.117187.125.40625.296875.75.523437,1.113281.0625.105469.125.207032.191407.316407.027343.046875.058593.097656.089843.148437.152344.25.289063.503906.425781.761719.082032.148437.171876.292969.261719.441406.113281.214844.113281.214844.113281.5.046876.015625.085938.03125.132813.050781.183594.105469.234375.195313.332031.386719.03125.054688.0625.113281.09375.171875.027344.054688.054688.109375.085938.167969.128906.226563.257812.453125.398437.675781.039063.066406.078125.128906.117188.195313.039062.058593.078125.117187.113281.179687.085938.152344.085938.152344.085938.292969.046874,0,.09375,0,.140624,0c0,.070313,0,.140625,0,.210937.046876,0,.09375,0,.144532,0c0,.070313,0,.140626,0,.214844.046875,0,.09375,0,.140625,0c.054687.121094.105469.242188.15625.363282.0625.148437.0625.148437.203125.34375c0,.070312,0,.140624,0,.210937.046875,0,.09375,0,.140625,0c0,.070313,0,.140625,0,.214844.050781,0,.097656,0,.144531,0c.046875.109375.097656.222656.144531.335937.023438.0625.050781.121094.078125.1875.0625.179688.0625.179688.0625.464844.042969.019531.085938.035156.132813.050781.179687.105469.246093.199219.347656.375.03125.046875.0625.097657.09375.148438.070313.132812.070313.132812.070313.273437.046874,0,.09375,0,.140624,0c.0625.113282.121094.226563.179688.335938.03125.0625.066406.125.101562.191406.078126.179688.078126.179688.078126.464844.046874,0,.09375,0,.140624,0c.0625.101562.121094.203125.179688.304687.03125.058594.066406.113281.101562.171875.078126.160156.078126.160156.078126.371094.046874,0,.09375,0,.140624,0c.144532.214844.144532.214844.144532.425781-2.9375.007813-5.871094.015625-8.808594.019531-.34375,0-.691406,0-1.039062,0-.066407,0-.136719,0-.207032,0-1.117187.003907-2.234375.003907-3.351562.007813-1.148438.003906-2.292969.003906-3.4375.003906-.707032,0-1.417969.003907-2.125.007813-.484375,0-.96875,0-1.453125,0-.28125,0-.558594,0-.839844.003906-.253906,0-.511719,0-.765625,0-.136719,0-.277344,0-.414062.003906-.082032,0-.160157-.003906-.242188-.003906-.070312,0-.140625,0-.214844,0-.175781-.042969-.175781-.042969-.300781-.207031-.0625-.140625-.125-.277344-.179687-.421875-.117188-.277344-.285157-.511719-.464844-.757813-.085938-.140625-.085938-.140625-.085938-.355469-.046875,0-.09375,0-.144531,0-.199219-.199218-.28125-.300781-.300781-.585937.003906-.0625.011718-.125.019531-.191406-.050781,0-.097656,0-.144531,0-.023438-.070313-.046875-.140625-.074219-.210938-.050781-.050781-.105469-.101562-.164063-.152343-.203124-.214844-.285156-.394532-.398437-.664063-.140625-.3125-.328125-.59375-.507813-.882813-.144531-.246093-.28125-.484374-.390624-.746093-.109376-.246094-.242188-.449219-.394532-.667969-.113281-.199219-.140625-.265625-.140625-.496094-.050781,0-.097656,0-.144531,0-.332031-.402344-.785156-1.027344-.785156-1.554687-.046875,0-.09375,0-.144532,0-.105468-.148438-.105468-.148438-.222656-.34375-.039062-.0625-.074218-.125-.117187-.191407-.085938-.175781-.085938-.175781-.085938-.386718-.097656-.046875-.191406-.09375-.289062-.140625c0-.070313,0-.140625,0-.214844-.046875,0-.09375,0-.140625,0-.023438-.046875-.046875-.097656-.066406-.148437-.144532-.316407-.289063-.628907-.453126-.9375-.101562-.203126-.167968-.382813-.195312-.609376-.046875,0-.09375,0-.144531,0c0-.070312,0-.140624,0-.214843-.046875,0-.09375,0-.140625,0-.019532-.054688-.039063-.113281-.058594-.171875-.027344-.058594-.054688-.121094-.085938-.179688-.070312-.023437-.140624-.046875-.214843-.070312-.089844-.183594-.089844-.183594-.175781-.414063-.105469-.273437-.214844-.488281-.394532-.71875-.050781-.164062-.101562-.328125-.140625-.496093-.046875,0-.097656,0-.144531,0c0-.046876,0-.09375,0-.140626-.070312-.023437-.140625-.046874-.214844-.070312-.074218-.140625-.148437-.28125-.214844-.425781-.046874-.070313-.09375-.140625-.140624-.210938c0-.070312,0-.140625,0-.214843-.046876,0-.09375,0-.144532,0-.027344-.097657-.027344-.097657-.058594-.199219-.0625-.21875-.0625-.21875-.195312-.335938-.101562-.101562-.101562-.101562-.128906-.269531-.03125-.199219-.03125-.199219-.207032-.34375-.453124-.449219-.625-1-.765624-1.609375-.046876,0-.097657,0-.144532,0-.351562-.367187-.601562-.777344-.714844-1.273437-.046874,0-.09375,0-.140624,0-.105469-.1875-.144532-.277344-.144532-.496094-.046875,0-.09375,0-.144531,0-.015625-.042969-.035156-.085938-.050781-.132813-.039063-.085937-.039063-.085937-.078125-.171875-.023438-.058594-.046875-.113281-.070313-.171875-.074218-.164062-.074218-.164062-.199218-.273437-.101563-.097656-.101563-.097656-.101563-.3125-7.636719,0-15.273437,0-23.140625,0c.023438-.136719.046875-.277344.070312-.421875.046876,0,.09375,0,.144532,0c.015625-.050781.035156-.097657.050781-.148438.144531-.324219.34375-.609375.535156-.902343.117188-.203126.171875-.347657.199219-.578126.046875,0,.09375,0,.144531,0c0-.070312,0-.140624,0-.210937.046875,0,.09375,0,.140625,0c.007813-.0625.007813-.0625.019532-.125.050781-.160156.050781-.160156.191406-.28125.207031-.226563.230468-.429687.289062-.726563.046875,0,.09375,0,.144532,0c0-.070312,0-.140624,0-.210937.070312-.046875.140624-.09375.214843-.144531.09375-.160156.09375-.160156.175781-.347656.109376-.234376.207032-.394532.394532-.570313.074218-.140625.144531-.28125.214844-.425781.046874,0,.09375,0,.140624,0c.007813-.082032.007813-.082032.011719-.171875.082031-.34375.253907-.613281.4375-.914063.03125-.058594.066407-.117187.101563-.175781.164062-.269531.328125-.542969.5-.808594.136718-.210937.242187-.417969.328125-.652343.023437-.0625.046875-.121094.074219-.183594.015624-.046875.03125-.089844.046874-.136719.046876,0,.097657,0,.144532,0c.011718-.042969.019531-.085937.03125-.128906.039062-.152344.039062-.152344.113281-.292969.046875,0,.089844,0,.140625,0c.011719-.0625.011719-.0625.023438-.121094.070312-.238281.195312-.429687.320312-.640625.078125-.152343.125-.28125.15625-.441406.117188-.023437.234375-.046875.355469-.070313.007812-.039062.015625-.074218.023437-.113281.066406-.226562.167969-.433593.269532-.648437.058593-.125.058593-.125.117187-.25.03125-.0625.0625-.128906.089844-.191406.050781,0,.097656,0,.144531,0c.003906-.0625.007812-.121094.011719-.183594.0625-.261719.152343-.390625.316406-.601563.234375-.320312.449219-.664062.527344-1.054687.050781,0,.097656,0,.144531,0c.027344-.070313.027344-.070313.054688-.144532.105468-.25.222656-.488281.347656-.726562.023437-.046875.046875-.09375.070312-.140625.054688-.109375.113282-.222656.171875-.332031.046875,0,.09375,0,.140625,0c.03125-.117188.03125-.117188.058594-.234375.078125-.246094.113281-.316407.300781-.472657.023438-.070312.046875-.140624.070313-.214843.046875,0,.09375,0,.140625,0c.011719-.039063.019531-.082031.027343-.125.070313-.246094.214844-.449219.347657-.664063.058593-.097656.117187-.191406.175781-.285156.03125-.046875.058594-.09375.085938-.140625.128906-.210937.25-.425781.367187-.644531.066406-.113282.136719-.222656.210937-.332032.046876,0,.09375,0,.144532,0c.007812-.042968.015625-.078124.023437-.121093.054688-.1875.132813-.351563.222657-.527344.03125-.058594.058593-.121094.09375-.183594.089843-.160156.089843-.160156.230468-.300781.027344-.066406.054688-.136719.085938-.203125.042968-.097656.085937-.195313.128906-.292969.042969-.105468.042969-.105468.089844-.210937.289062-.589844.289062-.589844.605468-.714844.25-.03125.488282-.03125.738282-.023437.09375-.003907.191406-.003907.285156-.003907.261719,0,.523438,0,.785156.007813.28125,0,.5625,0,.84375,0c.488282,0,.976563,0,1.464844.007812.707031.007813,1.410156.007813,2.117188.007813c1.144531.003906,2.289062.007812,3.433593.015625c1.113281.007812,2.226563.015625,3.335938.019531.070312,0,.136719,0,.210937,0c.34375,0,.6875,0,1.03125.003906c2.851563.007813,5.707032.023438,8.558594.042969-.046875.199219-.105469.363281-.199219.546875-.117187.21875-.117187.21875-.226562.441406-.125.265625-.265625.507813-.433594.75-.179687.257813-.304687.515625-.425781.808594-.117188.238281-.238282.472656-.355469.707031-.050781,0-.097656,0-.144531,0-.007813.039063-.011719.078125-.019532.117188-.070312.214844-.195312.347656-.339843.519531-.128907.207031-.25.417969-.355469.636719-.046875,0-.09375,0-.144531,0-.007813.050781-.011719.101562-.019531.152344-.058594.230468-.148438.386718-.273438.585937-.25.410156-.460938.828125-.671875,1.261719-.105469.195312-.105469.195312-.246094.265625-.078125.140625-.144531.289062-.207031.4375-.082031.125-.082031.125-.292969.195312c0,.09375,0,.1875,0,.285157-.050781,0-.097656,0-.144531,0c0,.070312,0,.140624,0,.210937-.046875,0-.09375,0-.144531,0c0,.070313,0,.140625,0,.214844-.046875,0-.09375,0-.140625,0-.003906.054687-.007813.113281-.015625.171875-.074219.328125-.210938.613281-.414063.890625-.070312.023437-.140625.046875-.214844.070312-.003906.0625-.011718.125-.015624.191407-.0625.273437-.148438.324218-.339844.515624-.109375.207032-.199219.417969-.285156.636719-.046876,0-.09375,0-.144532,0c0,.070313,0,.140625,0,.210938-.046875,0-.09375,0-.140625,0-.007812.089843-.007812.089843-.015625.179687-.058594.253906-.160156.394532-.320312.597656-.171875.261719-.273438.558594-.378906.851563-.070313,0-.140626,0-.214844,0c0,.070313,0,.140625,0,.210937-.046875,0-.09375,0-.144532,0-.003906.105469-.003906.105469-.011718.210938-.050782.339844-.222656.585938-.410156.867188-.050782.074218-.050782.074218-.101563.152343-.132813.203125-.269531.40625-.402344.609375-.046875,0-.097656,0-.144531,0-.019531.070313-.019531.070313-.042969.148438-.027343.09375-.027343.09375-.054687.191406-.019532.0625-.035156.125-.054688.191406-.0625.175782-.0625.175782-.203125.386719-.046875,0-.09375,0-.144531,0-.007812.050781-.015625.101563-.023438.152344-.054687.226562-.140624.398437-.253906.601562-.054687.101563-.054687.101563-.109375.203125-.101562.15625-.195312.261719-.328125.390625-.074218.136719-.144531.28125-.214844.421875-.046874,0-.09375,0-.140624,0-.007813.085938-.011719.171875-.019532.257813-.035156.304687-.15625.484375-.339844.734375-.054687.15625-.054687.15625-.070312.28125-.046875,0-.09375,0-.140625,0c0,.046875,0,.09375,0,.140625-.050781,0-.097656,0-.144531,0c0,.09375,0,.1875,0,.285156-.070313.070313-.140625.140625-.214844.210937-.09375.210938-.1875.421876-.285156.636719c7.519531-.023437,15.039062-.046875,22.785156-.070312c0-.070313,0-.140625,0-.210938-.070312-.023437-.140625-.046875-.214844-.070312-.03125-.136719-.066406-.273438-.09375-.414063-.066406-.207031-.175781-.34375-.308594-.515625-.105468-.148437-.183593-.296875-.261718-.460937-.183594-.375-.40625-.726563-.628906-1.082032-.382813-.621093-.382813-.621093-.351563-.996093-.042969,0-.089844,0-.140625,0c0-.046875,0-.09375,0-.140625-.046875,0-.09375,0-.140625,0-.097656-.132813-.097656-.132813-.203125-.3125-.039062-.066406-.074219-.128906-.113281-.195313s-.074219-.132812-.113281-.199219c-.035157-.058593-.070313-.121093-.109376-.179687-.03125-.054687-.0625-.109375-.097656-.164063-.027344-.050781-.058594-.101562-.089844-.152343-.0625-.140625-.0625-.140625-.0625-.425781-.046874,0-.09375,0-.140624,0c0-.070313,0-.136719,0-.210938-.046876,0-.09375,0-.144532,0-.113281-.167969-.21875-.335938-.320312-.511719-.027344-.050781-.058594-.097656-.089844-.148437-.375-.632813-.375-.632813-.375-.894532-.046875,0-.09375,0-.144531,0-.332031-.410156-.640625-.882812-.640625-1.417968-.046875,0-.09375,0-.144532,0c0-.070313,0-.140625,0-.210938-.042968-.019531-.085937-.035156-.132812-.054687-.179688-.105469-.226562-.183594-.3125-.371094-.023438-.050781-.046875-.097656-.070312-.148437C41,29.859375,41,29.859375,41,29.714844c-.046875,0-.09375,0-.144531,0-.210938-.46875-.210938-.46875-.210938-.703125-.050781,0-.097656,0-.144531,0-.109375-.164063-.207031-.320313-.304688-.488281-.058593-.097657-.113281-.195313-.171874-.292969-.027344-.046875-.054688-.097657-.085938-.148438-.105469-.175781-.214844-.355469-.320312-.53125-.0625-.105469-.125-.207031-.1875-.3125-.039063-.054687-.074219-.113281-.109376-.171875-.097656-.167968-.183593-.332031-.265624-.507812-.171876-.34375-.375-.660156-.585938-.984375-.199219-.308594-.324219-.511719-.324219-.878907-.046875,0-.097656,0-.144531,0c0-.070312,0-.140624,0-.214843-.046875,0-.09375,0-.144531,0-.230469-.296875-.339844-.558594-.425781-.917969-.050782,0-.09375,0-.144532,0-.007812-.121094-.007812-.121094-.019531-.238281-.015625-.085938-.035156-.171875-.050781-.257813-.042969-.019531-.085938-.039062-.132813-.058594-.226562-.121093-.28125-.285156-.394531-.511718-.183594-.351563-.375-.679688-.605469-1C36,21.367188,36,21.367188,35.929688,21.15625c-.035157-.035156-.070313-.066406-.101563-.101562-.128906-.125-.1875-.242188-.261719-.402344-.089844-.21875-.089844-.21875-.28125-.347656-.050781-.160157-.097656-.328126-.144531-.492188.050781-.023438.097656-.046875.144531-.074219.074219-.113281.074219-.113281.140625-.253906.023438-.050781.050781-.101563.074219-.152344.039062-.082031.039062-.082031.082031-.164062.023438-.050781.050781-.105469.078125-.160157.066406-.132812.132813-.265624.195313-.398437.050781,0,.097656,0,.144531,0c0-.046875,0-.09375,0-.144531.046875,0,.09375,0,.144531,0c.003907-.054688.007813-.113282.011719-.175782.0625-.269531.167969-.425781.320312-.65625.164063-.269531.269532-.566406.378907-.863281.050781,0,.097656,0,.144531,0c.019531-.046875.035156-.09375.054688-.144531.109374-.257812.242187-.503906.378906-.75.199218-.355469.199218-.355469.351562-.734375.046875,0,.09375,0,.144532,0c0-.070313,0-.140625,0-.210937.046874,0,.09375,0,.140624,0c.019532-.0625.035157-.121094.054688-.1875.09375-.25.222656-.441407.375-.660157.054688-.160156.054688-.160156.070312-.285156.046876,0,.09375,0,.144532,0c0-.070313,0-.140625,0-.210937.046875,0,.09375,0,.140625,0c.019531-.054688.039062-.105469.058593-.15625.082032-.195313.179688-.347657.300782-.519532.136718-.195312.253906-.386718.355468-.597656.046876,0,.09375,0,.144532,0c.007812-.039062.015625-.078125.023437-.121094.054688-.1875.132813-.351562.222657-.523437.03125-.0625.058593-.125.09375-.1875.089843-.160157.089843-.160157.230468-.300781.046875-.140626.046875-.140626.082032-.292969.019531-.089844.039062-.179688.0625-.273438.046874,0,.09375,0,.140624,0c0-.070312,0-.140625,0-.210937.046876,0,.09375,0,.144532,0c.019531-.050782.039062-.105469.058594-.15625.082031-.199219.183593-.375.296874-.558594.128907-.207031.253907-.410156.359376-.632812.046874,0,.09375,0,.140624,0c.007813-.046876.011719-.089844.019532-.140626.09375-.371093.277344-.691406.496094-1.007812.132812-.179688.132812-.179688.167968-.355469.03125-.121093.03125-.121093.246094-.261719.078125-.164062.148438-.328124.214844-.496093.046875,0,.09375,0,.144531,0c.105469-.351563.105469-.351563.210937-.707031.046876,0,.097657,0,.144532,0c0-.070313,0-.140626,0-.214844.046875,0,.09375,0,.144531,0c.015625-.046875.03125-.09375.050781-.144532.070313-.164062.144532-.308593.238282-.460937.105468-.1875.175781-.316406.210937-.527344.042969,0,.089844,0,.140625,0c0-.066406,0-.136719,0-.210937.070312,0,.140625,0,.214844,0c0-.070313,0-.140625,0-.210938.046875,0,.09375,0,.144531,0c0-.046875,0-.09375,0-.140625.046875,0,.089844,0,.140625,0c.007812-.066406.015625-.128906.023438-.195312.050781-.242188.113281-.324219.261718-.515625.054688-.117188.105469-.238282.15625-.359375.15625-.367188.339844-.699219.566406-1.027344.164063-.238281.277344-.453125.347657-.734375.050781,0,.097656,0,.144531,0c0-.070312,0-.140625,0-.210938.046875,0,.09375,0,.144531,0c.046875-.164062.09375-.328124.140625-.496093.046875,0,.09375,0,.144532,0c.023437-.140625.046874-.28125.070312-.425781Zm0,0" fill="#e2adbe"/><path d="M12.421875,19.707031c.171875-.003906.339844-.003906.511719.003907.09375-.003907.191406-.003907.285156-.003907.261719,0,.523438,0,.785156.007813.28125,0,.5625,0,.84375,0c.488282,0,.976563,0,1.464844.007812.707031.007813,1.410156.007813,2.117188.007813c1.144531.003906,2.289062.007812,3.433593.015625c1.113281.007812,2.226563.015625,3.335938.019531.070312,0,.136719,0,.210937,0c.34375,0,.6875,0,1.03125.003906c2.851563.007813,5.707032.023438,8.558594.042969-.046875.199219-.105469.363281-.199219.546875-.117187.21875-.117187.21875-.226562.441406-.125.265625-.265625.507813-.433594.75-.179687.257813-.304687.515625-.425781.808594-.117188.238281-.238282.472656-.355469.707031-.050781,0-.097656,0-.144531,0-.007813.039063-.011719.078125-.019532.117188-.070312.214844-.195312.347656-.339843.519531-.128907.207031-.25.417969-.355469.636719-.046875,0-.09375,0-.144531,0-.007813.050781-.011719.101562-.019531.152344-.058594.230468-.148438.386718-.273438.585937-.25.410156-.460938.828125-.671875,1.261719-.105469.195312-.105469.195312-.246094.265625-.078125.140625-.144531.289062-.207031.4375-.082031.125-.082031.125-.292969.195312c0,.09375,0,.1875,0,.285157-.050781,0-.097656,0-.144531,0c0,.070312,0,.140624,0,.210937-.046875,0-.09375,0-.144531,0c0,.070313,0,.140625,0,.214844-.046875,0-.09375,0-.140625,0-.007813.085937-.007813.085937-.015625.171875-.074219.328125-.210938.613281-.414063.890625-.070312.023437-.140625.046875-.214844.070312-.003906.0625-.011718.125-.015624.191407-.0625.273437-.148438.324218-.339844.515624-.109375.207032-.199219.417969-.285156.636719-.046876,0-.09375,0-.144532,0c0,.070313,0,.140625,0,.210938-.046875,0-.09375,0-.140625,0-.007812.058593-.011719.121093-.015625.179687-.058594.253906-.160156.394532-.320312.597656-.171875.261719-.273438.558594-.378906.851563-.070313,0-.140626,0-.214844,0c0,.070313,0,.140625,0,.210937-.046875,0-.09375,0-.144532,0-.003906.070313-.007812.140626-.011718.210938-.050782.339844-.222656.585938-.410156.867188-.035157.050781-.066407.101562-.101563.152343-.132813.203125-.269531.40625-.402344.609375-.046875,0-.097656,0-.144531,0-.019531.070313-.019531.070313-.042969.148438-.027343.09375-.027343.09375-.054687.191406-.019532.0625-.035156.125-.054688.191406-.0625.175782-.0625.175782-.203125.386719-.046875,0-.09375,0-.144531,0-.007812.050781-.015625.101563-.023438.152344-.054687.226562-.140624.398437-.253906.601562-.035156.066407-.074218.132813-.109375.203125-.101562.15625-.195312.261719-.328125.390625-.074218.136719-.144531.28125-.214844.421875-.046874,0-.09375,0-.140624,0-.007813.085938-.011719.171875-.019532.257813-.035156.304687-.15625.484375-.339844.734375-.054687.15625-.054687.15625-.070312.28125-.046875,0-.09375,0-.140625,0c0,.046875,0,.09375,0,.140625-.050781,0-.097656,0-.144531,0c0,.09375,0,.1875,0,.285156-.09375.101563-.09375.101563-.214844.210937-.074219.117188-.144531.234376-.214844.355469-.089844.148438-.089844.148438-.214844.28125-.171874.035157-.171874.035157-.382812.035157-.082031,0-.160156.003906-.242188.003906-.089843-.003906-.179687-.003906-.269531-.003906-.09375,0-.1875,0-.285156,0-.261719,0-.523437,0-.78125,0-.28125-.003907-.5625-.003907-.84375-.003907-.488281.003907-.976563,0-1.464844,0-.703125,0-1.40625-.003906-2.113281-.003906-1.140625,0-2.285156-.003906-3.429688-.003906-1.109374-.003907-2.21875-.007813-3.332031-.007813-.066406,0-.136719,0-.207031,0-.339844,0-.6875,0-1.027344,0-2.851562-.003906-5.699218-.007812-8.546875-.015625.070313-.542969.070313-.542969.230469-.777343.03125-.050782.0625-.097657.097656-.144532.03125-.050781.066406-.097656.097656-.148437.296876-.417969.296876-.417969.429688-.910157.046875,0,.09375,0,.144531,0c0-.070312,0-.140624,0-.210937.046875,0,.09375,0,.140625,0c.007813-.042969.011719-.082031.019532-.125.050781-.160156.050781-.160156.191406-.28125.207031-.226563.230468-.429687.289062-.726563.046875,0,.09375,0,.144532,0c0-.070312,0-.140624,0-.210937.105468-.070313.105468-.070313.214843-.144531.09375-.160156.09375-.160156.175781-.347656.109376-.234376.207032-.394532.394532-.570313.074218-.140625.144531-.28125.214844-.425781.046874,0,.09375,0,.140624,0c.007813-.082032.007813-.082032.011719-.171875.082031-.34375.253907-.613281.4375-.914063.03125-.058594.066407-.117187.101563-.175781.164062-.269531.328125-.542969.5-.808594.136718-.210937.242187-.417969.328125-.652343.023437-.0625.046875-.121094.074219-.183594.015624-.046875.03125-.089844.046874-.136719.046876,0,.097657,0,.144532,0c.011718-.042969.019531-.085937.03125-.128906.039062-.152344.039062-.152344.113281-.292969.046875,0,.089844,0,.140625,0c.007812-.042969.015625-.082031.023438-.121094.070312-.238281.195312-.429687.320312-.640625.078125-.152343.125-.28125.15625-.441406.117188-.023437.234375-.046875.355469-.070313.007812-.039062.015625-.074218.023437-.113281.066406-.226562.167969-.433593.269532-.648437.058593-.125.058593-.125.117187-.25.03125-.0625.0625-.128906.089844-.191406.050781,0,.097656,0,.144531,0c.007812-.089844.007812-.089844.011719-.183594.0625-.261719.152343-.390625.316406-.601563.234375-.320312.449219-.664062.527344-1.054687.050781,0,.097656,0,.144531,0c.027344-.070313.027344-.070313.054688-.144532.105468-.25.222656-.488281.347656-.726562.023437-.046875.046875-.09375.070312-.140625.054688-.109375.113282-.222656.171875-.332031.046875,0,.09375,0,.140625,0c.019532-.078125.039063-.15625.058594-.234375.078125-.246094.113281-.316407.300781-.472657.035157-.105468.035157-.105468.070313-.214843.046875,0,.09375,0,.140625,0c.011719-.039063.019531-.082031.027343-.125.070313-.246094.214844-.449219.347657-.664063.058593-.097656.117187-.191406.175781-.285156.03125-.046875.058594-.09375.085938-.140625.128906-.210937.25-.425781.367187-.644531.066406-.113282.136719-.222656.210937-.332032.046876,0,.09375,0,.144532,0c.007812-.042968.015625-.078124.023437-.121093.054688-.1875.132813-.351563.222657-.527344.03125-.058594.058593-.121094.09375-.183594.089843-.160156.089843-.160156.230468-.300781.027344-.066406.054688-.136719.085938-.203125.042968-.097656.085937-.195313.128906-.292969.03125-.070312.058594-.136718.089844-.210937.203125-.417969.339844-.683594.832031-.742188Zm0,0" fill="#94c021"/><path d="M46.5,0.210938c.117188.023437.234375.046874.355469.074218c0,.066406,0,.136719,0,.210938.050781,0,.097656,0,.144531,0c.03125.085937.03125.085937.0625.171875.0625.191406.0625.191406.222656.25.046875.125.046875.125.089844.285156.101562.316406.246094.550781.4375.820313.167969.246093.300781.503906.441406.761718.121094.21875.257813.429688.398438.640625.0625.113281.0625.113281.0625.253907.046875,0,.09375,0,.140625,0c0,.070312,0,.140624,0,.210937.046875,0,.097656,0,.144531,0c.03125.070313.058594.140625.089844.214844.125.285156.261718.570312.402344.851562.023437.046875.046874.097657.070312.148438.160156.320312.34375.566406.582031.839843.046875.113282.097657.234376.140625.351563.050782.074219.101563.148437.152344.226563.132812.199218.132812.199218.132812.339843.046876,0,.09375,0,.144532,0c.039062.101563.039062.101563.078125.203125.125.289063.285156.546875.449219.808594.191406.320312.367187.644531.542968.96875.269532.488281.546875.972656.875,1.425781.132813.214844.160156.378907.199219.625.042969.023438.089844.046875.140625.070313.023438.058594.042969.117187.066406.175781.066406.199219.066406.199219.292969.320313.097656.160156.097656.160156.199219.351562.035156.070312.074218.136719.113281.210938.035156.070312.074219.144531.113281.214843.273438.515625.273438.515625.585938,1.007813.136718.207031.210937.402344.285156.640625.058594.148437.058594.148437.273438.265625.070312.128906.140624.265625.203124.402344.167969.34375.351563.636718.582032.941406.046875.09375.09375.1875.140625.28125.050781.023437.097656.046875.144531.070312.058594.175782.101562.351563.144531.53125.082031.210938.191407.304688.355469.460938.089844.148437.175781.296875.253906.453125.0625.113281.0625.113281.125.234375.039063.078125.078125.152344.121094.234375.039062.070312.082031.144531.121094.222656.09375.199219.09375.199219.09375.480469.042968.019531.085937.035156.128906.054687.179688.105469.246094.195313.351562.371094.03125.050781.0625.097656.09375.152344.066407.132812.066407.132812.066407.273437.050781,0,.097656,0,.144531,0c.160156.433594.160156.699219,0,1.132813-.046875,0-.09375,0-.144531,0c0,.046875,0,.09375,0,.140625-.046875,0-.09375,0-.140625,0-.007813.039062-.015625.078125-.023438.121094-.058594.195312-.144531.347656-.261718.515624-.046876,0-.09375,0-.144532,0-.007812.042969-.019531.082032-.03125.128907-.03125.121093-.070312.246093-.109375.367187-.046875,0-.097656,0-.144531,0c0,.046875,0,.09375,0,.140625-.046875,0-.09375,0-.144531,0-.003907.070313-.007813.140625-.011719.210938-.039062.289062-.167969.476562-.328125.714843-.113281.175782-.171875.359376-.230469.558594-.046875,0-.09375,0-.140625,0c0,.09375,0,.1875,0,.285156-.046875,0-.097656,0-.144531,0-.007812.039063-.015625.082032-.023438.125-.054687.175782-.121093.269532-.238281.410157-.234375.292969-.402343.601562-.574219.933593-.09375.160157-.09375.160157-.234374.230469-.082032.148438-.082032.148438-.152344.320313-.027344.058594-.050782.117187-.078125.179687-.019531.042969-.035157.089844-.058594.132813-.042969,0-.089844,0-.140625,0-.011719.058594-.019531.113281-.03125.171875-.039062.183593-.039062.183593-.109375.324219-.050781,0-.097656,0-.144531,0c0,.070312,0,.140624,0,.214843-.046875,0-.09375,0-.144532,0-.003906.054688-.003906.109375-.007812.167969-.089844.359375-.265625.664062-.492188.960938-.046874,0-.09375,0-.140624,0-.007813.042968-.019532.082031-.027344.121093-.050782.1875-.132813.332031-.226563.5-.035156.054688-.066406.113281-.101562.171875-.023438.042969-.046875.085938-.074219.128906-.046875,0-.09375,0-.140625,0-.007813.046876-.011719.09375-.019531.140626-.09375.363281-.273438.679687-.484375.992187-.046875,0-.09375,0-.140625,0c0,.070313,0,.140625,0,.210937-.046875,0-.09375,0-.144532,0-.007812.066407-.015624.128907-.027343.195313-.039063.199219-.082031.339844-.1875.511719-.042969,0-.09375,0-.140625,0-.023438.1875-.046875.375-.070313.566406-.050781,0-.097656,0-.144531,0-.007812.042969-.015625.082031-.023438.125-.050781.171875-.117187.28125-.222656.425781-.03125.042969-.0625.085938-.09375.128907-.027344.035156-.058594.066406-.089844.097656-.046874,0-.09375,0-.140624,0-.011719.050781-.019532.101562-.027344.152344-.046875.214843-.113282.417968-.1875.628906-.046875,0-.09375,0-.144532,0c0,.046875,0,.09375,0,.140625-.046874,0-.09375,0-.140624,0-.015626.058593-.015626.058593-.027344.121093-.066406.238282-.195313.429688-.320313.640626-.078125.148437-.121093.277343-.152343.441406-.046876,0-.09375,0-.144532,0c0,.070312,0,.140625,0,.210937-.046875,0-.09375,0-.140625,0-.03125.074219-.03125.074219-.058593.152344-.09375.214844-.203126.398437-.332032.589844-.128906.195312-.253906.386719-.367187.59375-.035157.046875-.066407.097656-.101563.152343-.046875,0-.09375,0-.140625,0c0,.066407,0,.136719,0,.210938-.046875,0-.097656,0-.144531,0c0,.09375,0,.1875,0,.28125-.046875,0-.09375,0-.144531,0-.105469.316406-.105469.316406-.210938.636719-.046875,0-.097656,0-.144531,0c0,.070312,0,.140625,0,.214843-.046875,0-.09375,0-.144531,0c0,.070313,0,.136719,0,.210938-.046875,0-.09375,0-.140625,0c0,.09375,0,.1875,0,.285156-.046875,0-.09375,0-.144532,0c0,.054688-.003906.109375-.007812.164063-.089844.363281-.265625.667969-.492188.964843-.046874,0-.09375,0-.140624,0c0,.070313,0,.140626,0,.214844-.046876,0-.09375,0-.144532,0-.023437.113282-.046875.230469-.070312.351563-.046875,0-.09375,0-.144532,0-.023437-.0625-.046874-.128907-.070312-.195313-.109375-.257812-.257812-.476562-.417969-.710937-.214843-.308594-.394531-.617188-.558593-.957031-.15625-.308594-.347657-.597657-.53125-.890626-.382813-.621093-.382813-.621093-.351563-.996093-.042969,0-.089844,0-.140625,0c0-.046875,0-.09375,0-.140625-.046875,0-.09375,0-.140625,0-.097656-.132813-.097656-.132813-.203125-.3125-.039062-.066406-.074219-.128906-.113281-.195313s-.074219-.132812-.113281-.199219c-.035157-.058593-.070313-.121093-.109376-.179687-.03125-.054687-.0625-.109375-.097656-.164063-.027344-.050781-.058594-.101562-.089844-.152343-.0625-.140625-.0625-.140625-.0625-.425781-.046874,0-.09375,0-.140624,0c0-.070313,0-.136719,0-.210938-.046876,0-.09375,0-.144532,0-.113281-.167969-.21875-.335938-.320312-.511719-.027344-.050781-.058594-.097656-.089844-.148437-.375-.632813-.375-.632813-.375-.894532-.046875,0-.09375,0-.144531,0-.332031-.410156-.640625-.882812-.640625-1.417968-.046875,0-.09375,0-.144532,0c0-.070313,0-.140625,0-.210938-.042968-.019531-.085937-.035156-.132812-.054687-.179688-.105469-.226562-.183594-.3125-.371094-.023438-.050781-.046875-.097656-.070312-.148437C41,29.859375,41,29.859375,41,29.714844c-.046875,0-.09375,0-.144531,0-.210938-.46875-.210938-.46875-.210938-.703125-.050781,0-.097656,0-.144531,0-.109375-.164063-.207031-.320313-.304688-.488281-.058593-.097657-.113281-.195313-.171874-.292969-.027344-.046875-.054688-.097657-.085938-.148438-.105469-.175781-.214844-.355469-.320312-.53125-.0625-.105469-.125-.207031-.1875-.3125-.039063-.054687-.074219-.113281-.109376-.171875-.097656-.167968-.183593-.332031-.265624-.507812-.171876-.34375-.375-.660156-.585938-.984375-.199219-.308594-.324219-.511719-.324219-.878907-.046875,0-.097656,0-.144531,0c0-.070312,0-.140624,0-.214843-.046875,0-.09375,0-.144531,0-.230469-.296875-.339844-.558594-.425781-.917969-.050782,0-.09375,0-.144532,0-.003906-.082031-.011718-.160156-.019531-.238281-.015625-.085938-.035156-.171875-.050781-.257813-.066406-.03125-.066406-.03125-.132813-.058594-.226562-.121093-.28125-.285156-.394531-.511718-.183594-.351563-.375-.679688-.605469-1C36,21.367188,36,21.367188,35.929688,21.15625c-.035157-.035156-.070313-.066406-.101563-.101562-.128906-.125-.1875-.242188-.261719-.402344-.089844-.21875-.089844-.21875-.28125-.347656-.050781-.160157-.097656-.328126-.144531-.492188.050781-.023438.097656-.046875.144531-.074219.074219-.113281.074219-.113281.140625-.253906.023438-.050781.050781-.101563.074219-.152344.039062-.082031.039062-.082031.082031-.164062.023438-.050781.050781-.105469.078125-.160157.066406-.132812.132813-.265624.195313-.398437.050781,0,.097656,0,.144531,0c0-.046875,0-.09375,0-.144531.046875,0,.09375,0,.144531,0c.003907-.054688.007813-.113282.011719-.175782.0625-.269531.167969-.425781.320312-.65625.164063-.269531.269532-.566406.378907-.863281.050781,0,.097656,0,.144531,0c.019531-.046875.035156-.09375.054688-.144531.109374-.257812.242187-.503906.378906-.75.199218-.355469.199218-.355469.351562-.734375.046875,0,.09375,0,.144532,0c0-.070313,0-.140625,0-.210937.046874,0,.09375,0,.140624,0c.019532-.0625.035157-.121094.054688-.1875.09375-.25.222656-.441407.375-.660157.054688-.160156.054688-.160156.070312-.285156.046876,0,.09375,0,.144532,0c0-.070313,0-.140625,0-.210937.046875,0,.09375,0,.140625,0c.019531-.054688.039062-.105469.058593-.15625.082032-.195313.179688-.347657.300782-.519532.136718-.195312.253906-.386718.355468-.597656.046876,0,.09375,0,.144532,0c.007812-.039062.015625-.078125.023437-.121094.054688-.1875.132813-.351562.222657-.523437.042968-.09375.042968-.09375.09375-.1875.089843-.160157.089843-.160157.230468-.300781.046875-.140626.046875-.140626.082032-.292969.019531-.089844.039062-.179688.0625-.273438.046874,0,.09375,0,.140624,0c0-.070312,0-.140625,0-.210937.046876,0,.09375,0,.144532,0c.019531-.050782.039062-.105469.058594-.15625.082031-.199219.183593-.375.296874-.558594.128907-.207031.253907-.410156.359376-.632812.046874,0,.09375,0,.140624,0c.007813-.046876.011719-.089844.019532-.140626.09375-.371093.277344-.691406.496094-1.007812.132812-.179688.132812-.179688.167968-.355469.03125-.121093.03125-.121093.246094-.261719.078125-.164062.148438-.328124.214844-.496093.046875,0,.09375,0,.144531,0c.066406-.234375.140625-.46875.210937-.707031.046876,0,.097657,0,.144532,0c0-.070313,0-.140626,0-.214844.046875,0,.09375,0,.144531,0c.015625-.046875.03125-.09375.050781-.144532.070313-.164062.144532-.308593.238282-.460937.105468-.1875.175781-.316406.210937-.527344.042969,0,.089844,0,.140625,0c0-.066406,0-.136719,0-.210937.070312,0,.140625,0,.214844,0c0-.070313,0-.140625,0-.210938.046875,0,.09375,0,.144531,0c0-.046875,0-.09375,0-.140625.046875,0,.089844,0,.140625,0c.011719-.097656.011719-.097656.023438-.195312.050781-.242188.113281-.324219.261718-.515625.054688-.117188.105469-.238282.15625-.359375.15625-.367188.339844-.699219.566406-1.027344.164063-.238281.277344-.453125.347657-.734375.050781,0,.097656,0,.144531,0c0-.070312,0-.140625,0-.210938.046875,0,.09375,0,.144531,0c.046875-.164062.09375-.328124.140625-.496093.046875,0,.09375,0,.144532,0c.023437-.140625.046874-.28125.070312-.425781Zm0,0" fill="#e59501"/><path id="eSWVUt6wnCM7" d="M46.570312,39.765625c.09375,0,.191407,0,.285157,0c.023437.035156.042969.074219.0625.113281.207031.367188.421875.726563.644531,1.082032.082031.148437.082031.148437.082031.289062.046875,0,.09375,0,.140625,0c0,.070312,0,.140625,0,.210938.046875,0,.09375,0,.144532,0c0,.070312,0,.140624,0,.214843.046874,0,.09375,0,.140624,0c.027344.0625.050782.125.078126.1875.21875.511719.480468,1.035157.820312,1.476563.292969.386718.519531.851562.675781,1.304687.046875,0,.09375,0,.140625,0c.058594.117188.121094.230469.179688.347657.03125.0625.066406.128906.101562.191406.078125.171875.078125.171875.078125.3125.046875,0,.09375,0,.140625,0c.015625.039062.027344.078125.039063.117187.027343.078125.027343.078125.054687.15625.019532.050781.035156.101563.054688.152344.0625.164063.0625.164063.28125.28125c0,.070313,0,.140625,0,.210937.046875,0,.09375,0,.140625,0c0,.070313,0,.140626,0,.214844.046875,0,.097656,0,.144531,0c.023438.066406.023438.066406.050781.132813.140625.371093.300781.699219.523438,1.027343.070312.113282.070312.113282.070312.253907.046875,0,.09375,0,.140625,0c0,.046875,0,.09375,0,.140625.046875,0,.09375,0,.144532,0c.015624.058594.015624.058594.035156.117187.125.40625.296875.75.523437,1.113281.0625.105469.125.207032.191407.316407.027343.046875.058593.097656.089843.148437.152344.25.289063.503906.425781.761719.082032.148437.171876.292969.261719.441406.113281.214844.113281.214844.113281.5.046876.015625.085938.03125.132813.050781.183594.105469.234375.195313.332031.386719.03125.054688.0625.113281.09375.171875.027344.054688.054688.109375.085938.167969.128906.226563.257812.453125.398437.675781.039063.066406.078125.128906.117188.195313.039062.058593.078125.117187.113281.179687.085938.152344.085938.152344.085938.292969.046874,0,.09375,0,.140624,0c0,.070313,0,.140625,0,.210937.046876,0,.09375,0,.144532,0c0,.070313,0,.140626,0,.214844.046875,0,.09375,0,.140625,0c.054687.121094.105469.242188.15625.363282.0625.148437.0625.148437.203125.34375c0,.070312,0,.140624,0,.210937.046875,0,.09375,0,.140625,0c0,.070313,0,.140625,0,.214844.050781,0,.097656,0,.144531,0c.046875.109375.097656.222656.144531.335937.023438.0625.050781.121094.078125.1875.0625.179688.0625.179688.0625.464844.042969.019531.085938.035156.132813.050781.179687.105469.246093.199219.347656.375.046875.074219.046875.074219.09375.148438.070313.132812.070313.132812.070313.273437.046874,0,.09375,0,.140624,0c.0625.113282.121094.226563.179688.335938.03125.0625.066406.125.101562.191406.078126.179688.078126.179688.078126.464844.046874,0,.09375,0,.140624,0c.0625.101562.121094.203125.179688.304687.03125.058594.066406.113281.101562.171875.078126.160156.078126.160156.078126.371094.046874,0,.09375,0,.140624,0c.023438.117188.046876.234375.074219.355469-7.566406,0-15.132812,0-22.929687,0c.15625-.613281.15625-.613281.425781-.847657.023437-.070312.050781-.140624.074219-.214843.046875,0,.09375,0,.140625,0c.007812-.074219.011719-.144531.015625-.21875.066406-.328125.195312-.453125.414062-.699219.078125-.164062.148438-.328125.214844-.496094.121094-.261718.226562-.4375.429688-.636718.058593-.085938.113281-.167969.167968-.257813.03125-.046875.0625-.097656.09375-.144531.03125-.050782.0625-.101563.09375-.15625.046875-.074219.046875-.074219.09375-.148438.132813-.210937.261719-.421875.386719-.636718.027344-.046876.058594-.09375.089844-.140626.050781,0,.097656,0,.144531,0c.007812-.121093.007812-.121093.011719-.242187.046875-.382813.226562-.699219.417969-1.035156.046874,0,.09375,0,.140624,0c0-.070313,0-.140625,0-.210938.046876,0,.09375,0,.144532,0c0-.070312,0-.140625,0-.210937.046875,0,.09375,0,.140625,0c.019531-.046875.035156-.09375.054687-.140625.113282-.265625.242188-.523438.375-.78125.066406-.128907.132813-.257813.195313-.386719.054687-.105469.109375-.214844.164062-.320312.046875,0,.09375,0,.140625,0c.007813-.039063.011719-.082032.019532-.125.066406-.203126.1875-.289063.339843-.441407.074219-.136719.144531-.277343.210938-.421875.046875,0,.097656,0,.144531,0c.035156-.28125.035156-.28125.070312-.566406.046876,0,.09375,0,.144532,0c.015625-.050781.03125-.097656.046875-.148438.09375-.207031.09375-.207031.253906-.414062.246094-.320312.378906-.695312.527344-1.066406.101562-.210938.101562-.210938.3125-.351563.078125-.128906.078125-.128906.140625-.273437.023437-.054688.046875-.105469.070312-.160156.027344-.058594.050782-.113282.078125-.167969.046875-.113281.097657-.222657.144531-.332031.023438-.046876.042969-.097657.066407-.144532.074219-.125.074219-.125.289062-.269531.082031-.144531.082031-.144531.140625-.28125.046875,0,.09375,0,.144532,0c.023437-.140625.046874-.28125.070312-.425781.046875,0,.09375,0,.140625,0c.027344-.164063.050781-.328125.074219-.492188.046875,0,.09375,0,.144531,0c.042969-.140625.089844-.28125.140625-.425781.046875,0,.09375,0,.140625,0c.027344-.070313.027344-.070313.054687-.144531.09375-.21875.199219-.425782.3125-.636719.070313-.136719.070313-.136719.09375-.289063.039063-.132812.039063-.132812.257813-.273437.011719-.046875.023437-.09375.035156-.144531.035157-.140625.035157-.140625.246094-.28125.078125-.140625.152344-.28125.21875-.425782.046875,0,.089844,0,.140625,0c.070312-.210937.070312-.210937.140625-.425781.050781,0,.097656,0,.144531,0c.023438-.183593.046875-.371093.074219-.5625.046875,0,.09375,0,.140625,0c.027344-.09375.027344-.09375.054688-.1875.09375-.253906.21875-.4375.375-.664062.058593-.105469.121093-.210938.175781-.316407.304687-.542968.304687-.542968.464843-.742187Zm0,0" transform="translate(.000001 0)" fill="#642683"/><path id="eSWVUt6wnCM8" style="isolation:isolate" d="M11.929688,19.953125c.132812.019531.132812.019531.285156.070313.089844.121093.089844.121093.160156.269531.023438.046875.046875.097656.074219.148437.050781.148438.050781.148438.050781.429688.046875,0,.09375,0,.144531,0c0,.070312,0,.140625,0,.214844.046875,0,.09375,0,.140625,0c0,.046874,0,.09375,0,.140624.046875,0,.09375,0,.144532,0c0,.09375,0,.1875,0,.285157.046874,0,.09375,0,.140624,0c.074219.207031.140626.417969.214844.632812.046875,0,.09375,0,.144532,0c.140624.214844.140624.214844.140624.496094.046876,0,.097657,0,.144532,0c0,.046875,0,.09375,0,.144531.046875,0,.09375,0,.144531,0c.019531.054688.019531.054688.039063.113282.019531.050781.039062.101562.058593.15625.015625.046874.035157.097656.054688.148437.0625.164063.0625.164063.203125.359375c0,.066406,0,.136719,0,.210938.046875,0,.09375,0,.144531,0c0,.070312,0,.140624,0,.210937.042969,0,.089844,0,.140625,0c.152344.128906.152344.128906.285156.285156c0,.070313,0,.140625,0,.210938.046875,0,.09375,0,.144532,0c.015624.042969.027343.085937.042968.128906.164063.4375.375.804687.640625,1.191406.101563.164063.101563.164063.101563.378907.046875,0,.09375,0,.144531,0c0,.046874,0,.09375,0,.140624.046875,0,.09375,0,.140625,0c.03125.085938.03125.085938.0625.171876.0625.191406.0625.191406.222656.253906c0,.070312,0,.140625,0,.210937.046875,0,.09375,0,.144532,0c.015624.054688.039062.105469.054687.160157.078125.195312.078125.195312.203125.332031.132812.195312.113281.339843.097656.570312.046875,0,.09375,0,.144532,0c.230468.171875.28125.261719.335937.546875.007813.078125.011719.152344.019531.230469.046875,0,.09375,0,.144532,0c.015624.039063.035156.082031.054687.121094.039063.078125.039063.078125.078125.15625.035156.078125.035156.078125.074219.15625.066406.144531.066406.144531.21875.203125c0,.09375,0,.1875,0,.28125.050781,0,.097656,0,.144531,0c0,.046875,0,.09375,0,.144531.046875,0,.09375,0,.144531,0c.023438.230469.046875.464844.070313.707031.046875,0,.09375,0,.140625,0c.089843.210938.164062.414063.214843.636719.046876,0,.09375,0,.144532,0c.105468.148437.105468.148437.222656.339844.058594.09375.058594.09375.117188.191406.089843.175781.089843.175781.089843.386719.042969.007812.085938.011718.132813.015625.152344.058593.152344.058593.242187.226562.050781.183594.050781.183594.050781.398438.046876,0,.09375,0,.144532,0c.046875.113281.09375.230469.140625.351562.046875,0,.097656,0,.144531,0c.222656.371094.402344.710938.5,1.132813.046875,0,.09375,0,.144531,0c0,.09375,0,.1875,0,.28125.046875,0,.09375,0,.140625,0c.03125.0625.03125.0625.0625.121094.09375.183593.1875.363281.28125.542968.03125.0625.066406.125.097656.191406.03125.058594.0625.121094.097657.183594.027343.054688.054687.109375.085937.167969.089844.160156.089844.160156.304688.28125.046875.21875.046875.21875.070312.421875.046875,0,.09375,0,.144532,0c.265624.453125.265624.453125.367187.699219.046875.164062.046875.164062.203125.222656.046875.109375.089844.21875.128906.332031.089844.230469.167969.414063.339844.597656.300781.351563.390625.660157.390625,1.121094-7.5,0-14.992187,0-22.714844,0c.109375-.332031.214844-.570312.390625-.863281.042969-.070313.085938-.144531.132813-.21875.082031-.136719.171875-.269531.261719-.402344.027343-.117187.050781-.234375.070312-.355469.046875,0,.09375,0,.144531,0c0-.070312,0-.140624,0-.210937.046875,0,.09375,0,.140625,0c.007813-.042969.011719-.082031.019532-.125.050781-.160156.050781-.160156.191406-.28125.207031-.226563.230468-.429687.289062-.726563.046875,0,.09375,0,.144532,0c0-.070312,0-.140624,0-.210937.105468-.070313.105468-.070313.214843-.144531.09375-.160156.09375-.160156.175781-.347656.109376-.234376.207032-.394532.394532-.570313.074218-.140625.144531-.28125.214844-.425781.046874,0,.09375,0,.140624,0c.007813-.082032.007813-.082032.011719-.171875.082031-.34375.253907-.613281.4375-.914063.03125-.058594.066407-.117187.101563-.175781.164062-.269531.328125-.542969.5-.808594.136718-.210937.242187-.417969.328125-.652343.023437-.0625.046875-.121094.074219-.183594.015624-.046875.03125-.089844.046874-.136719.046876,0,.097657,0,.144532,0c.011718-.042969.019531-.085937.03125-.128906.039062-.152344.039062-.152344.113281-.292969.046875,0,.089844,0,.140625,0c.007812-.042969.015625-.082031.023438-.121094.070312-.238281.195312-.429687.320312-.640625.078125-.152343.125-.28125.15625-.441406.117188-.023437.234375-.046875.355469-.070313.007812-.039062.015625-.074218.023437-.113281.066406-.226562.167969-.433593.269532-.648437.058593-.125.058593-.125.117187-.25.03125-.0625.0625-.128906.089844-.191406.050781,0,.097656,0,.144531,0c.007812-.089844.007812-.089844.011719-.183594.0625-.261719.152343-.390625.316406-.601563.234375-.320312.449219-.664062.527344-1.054687.050781,0,.097656,0,.144531,0c.027344-.070313.027344-.070313.054688-.144532.105468-.25.222656-.488281.347656-.726562.023437-.046875.046875-.09375.070312-.140625.054688-.109375.113282-.222656.171875-.332031.046875,0,.09375,0,.140625,0c.019532-.078125.039063-.15625.058594-.234375.078125-.246094.113281-.316407.300781-.472657.035157-.105468.035157-.105468.070313-.214843.046875,0,.09375,0,.140625,0c.011719-.039063.019531-.082031.027343-.125.070313-.246094.214844-.449219.347657-.664063.058593-.097656.117187-.191406.175781-.285156.03125-.046875.058594-.09375.085938-.140625.128906-.210937.25-.425781.367187-.644531.066406-.113282.136719-.222656.210937-.332032.046876,0,.09375,0,.144532,0c.007812-.042968.015625-.078124.023437-.121093.054688-.1875.132813-.351563.222657-.527344.03125-.058594.058593-.121094.09375-.183594.089843-.160156.089843-.160156.230468-.300781.050782-.113281.097656-.230469.144532-.34375.140624-.300781.324218-.578125.5-.859375Zm0,0" transform="translate(.427735 0)" fill="#6c8c38"/><path id="eSWVUt6wnCM9" d="M35.140625,19.8125c11.351563.035156,11.351563.035156,22.929687.070312-.023437.183594-.046874.371094-.070312.566407-.046875,0-.09375,0-.144531,0c0,.046875,0,.09375,0,.140625-.046875,0-.09375,0-.140625,0-.007813.039062-.015625.078125-.023438.121094-.058594.195312-.144531.347656-.261718.515624-.046876,0-.09375,0-.144532,0-.007812.042969-.019531.082032-.03125.128907-.03125.121093-.070312.246093-.109375.367187-.046875,0-.097656,0-.144531,0c0,.046875,0,.09375,0,.140625-.046875,0-.09375,0-.144531,0-.003907.070313-.007813.140625-.011719.210938-.039062.289062-.167969.476562-.328125.714843-.113281.175782-.171875.359376-.230469.558594-.046875,0-.09375,0-.140625,0c0,.09375,0,.1875,0,.285156-.046875,0-.097656,0-.144531,0-.011719.0625-.011719.0625-.023438.125-.054687.175782-.121093.269532-.238281.410157-.234375.292969-.402343.601562-.574219.933593-.09375.160157-.09375.160157-.234374.230469-.082032.148438-.082032.148438-.152344.320313-.039063.085937-.039063.085937-.078125.179687-.019531.042969-.035157.089844-.058594.132813-.042969,0-.089844,0-.140625,0-.011719.058594-.019531.113281-.03125.171875-.039062.183593-.039062.183593-.109375.324219-.050781,0-.097656,0-.144531,0c0,.070312,0,.140624,0,.214843-.046875,0-.09375,0-.144532,0-.003906.054688-.003906.109375-.007812.167969-.089844.359375-.265625.664062-.492188.960938-.046874,0-.09375,0-.140624,0-.007813.042968-.019532.082031-.027344.121093-.050782.1875-.132813.332031-.226563.5-.035156.054688-.066406.113281-.101562.171875-.023438.042969-.046875.085938-.074219.128906-.046875,0-.09375,0-.140625,0-.007813.046876-.011719.09375-.019531.140626-.09375.363281-.273438.679687-.484375.992187-.046875,0-.09375,0-.140625,0c0,.070313,0,.140625,0,.210937-.046875,0-.09375,0-.144532,0-.011718.097657-.011718.097657-.027343.195313-.039063.199219-.082031.339844-.1875.511719-.042969,0-.09375,0-.140625,0-.023438.1875-.046875.375-.070313.566406-.050781,0-.097656,0-.144531,0-.007812.042969-.015625.082031-.023438.125-.050781.171875-.117187.28125-.222656.425781-.03125.042969-.0625.085938-.09375.128907-.027344.035156-.058594.066406-.089844.097656-.046874,0-.09375,0-.140624,0-.011719.050781-.019532.101562-.027344.152344-.046875.214843-.113282.417968-.1875.628906-.046875,0-.09375,0-.144532,0c0,.046875,0,.09375,0,.140625-.046874,0-.09375,0-.140624,0-.007813.039062-.015626.078125-.027344.121093-.066406.238282-.195313.429688-.320313.640626-.078125.148437-.121093.277343-.152343.441406-.046876,0-.09375,0-.144532,0c0,.070312,0,.140625,0,.210937-.046875,0-.09375,0-.140625,0-.03125.074219-.03125.074219-.058593.152344-.09375.214844-.203126.398437-.332032.589844-.128906.195312-.253906.386719-.367187.59375-.035157.046875-.066407.097656-.101563.152343-.046875,0-.09375,0-.140625,0c0,.066407,0,.136719,0,.210938-.046875,0-.097656,0-.144531,0c0,.09375,0,.1875,0,.28125-.046875,0-.09375,0-.144531,0-.070313.210938-.140625.421875-.210938.636719-.046875,0-.097656,0-.144531,0c0,.070312,0,.140625,0,.214843-.046875,0-.09375,0-.144531,0c0,.070313,0,.136719,0,.210938-.046875,0-.09375,0-.140625,0c0,.09375,0,.1875,0,.285156-.046875,0-.09375,0-.144532,0c0,.054688-.003906.109375-.007812.164063-.089844.363281-.265625.667969-.492188.964843-.046874,0-.09375,0-.140624,0c0,.070313,0,.140626,0,.214844-.046876,0-.09375,0-.144532,0-.023437.113282-.046875.230469-.070312.351563-.046875,0-.09375,0-.144532,0-.023437-.0625-.046874-.128907-.070312-.195313-.109375-.257812-.257812-.476562-.417969-.710937-.214843-.308594-.394531-.617188-.558593-.957031-.15625-.308594-.347657-.597657-.53125-.890626-.382813-.621093-.382813-.621093-.351563-.996093-.042969,0-.089844,0-.140625,0c0-.046875,0-.09375,0-.140625-.046875,0-.09375,0-.140625,0-.097656-.132813-.097656-.132813-.203125-.3125-.039062-.066406-.074219-.128906-.113281-.195313s-.074219-.132812-.113281-.199219c-.035157-.058593-.070313-.121093-.109376-.179687-.03125-.054687-.0625-.109375-.097656-.164063-.027344-.050781-.058594-.101562-.089844-.152343-.0625-.140625-.0625-.140625-.0625-.425781-.046874,0-.09375,0-.140624,0c0-.070313,0-.136719,0-.210938-.046876,0-.09375,0-.144532,0-.113281-.167969-.21875-.335938-.320312-.511719-.027344-.050781-.058594-.097656-.089844-.148437-.375-.632813-.375-.632813-.375-.894532-.046875,0-.09375,0-.144531,0-.332031-.410156-.640625-.882812-.640625-1.417968-.046875,0-.09375,0-.144532,0c0-.070313,0-.140625,0-.210938-.042968-.019531-.085937-.035156-.132812-.054687-.179688-.105469-.226562-.183594-.3125-.371094-.023438-.050781-.046875-.097656-.070312-.148437C41,29.859375,41,29.859375,41,29.714844c-.046875,0-.09375,0-.144531,0-.210938-.46875-.210938-.46875-.210938-.703125-.050781,0-.097656,0-.144531,0-.109375-.164063-.207031-.320313-.304688-.488281-.058593-.097657-.113281-.195313-.171874-.292969-.027344-.046875-.054688-.097657-.085938-.148438-.105469-.175781-.214844-.355469-.320312-.53125-.0625-.105469-.125-.207031-.1875-.3125-.054688-.085937-.054688-.085937-.109376-.171875-.097656-.167968-.183593-.332031-.265624-.507812-.171876-.34375-.375-.660156-.585938-.984375-.199219-.308594-.324219-.511719-.324219-.878907-.046875,0-.097656,0-.144531,0c0-.070312,0-.140624,0-.214843-.046875,0-.09375,0-.144531,0-.230469-.296875-.339844-.558594-.425781-.917969-.050782,0-.09375,0-.144532,0-.003906-.082031-.011718-.160156-.019531-.238281-.015625-.085938-.035156-.171875-.050781-.257813-.042969-.019531-.085938-.039062-.132813-.058594-.226562-.121093-.28125-.285156-.394531-.511718-.183594-.351563-.375-.679688-.605469-1C36,21.367188,36,21.367188,35.929688,21.15625c-.035157-.035156-.070313-.066406-.101563-.101562-.128906-.125-.1875-.242188-.261719-.402344-.089844-.21875-.089844-.21875-.28125-.347656-.046875-.160157-.09375-.324219-.144531-.492188Zm0,0" fill="#e10d15"/><path d="M35.140625,19.8125c11.351563.035156,11.351563.035156,22.929687.070312-.023437.183594-.046874.371094-.070312.566407-.046875,0-.09375,0-.144531,0c0,.046875,0,.09375,0,.140625-.046875,0-.09375,0-.140625,0-.023438.070312-.046875.140625-.070313.210937c0-.09375,0-.183593,0-.28125.046875,0,.09375,0,.140625,0c0-.070312,0-.140625,0-.214843.046875,0,.09375,0,.144532,0c0-.089844,0-.183594,0-.28125-11.066407.035156-11.066407.035156-22.359376.070312-.023437.070312-.046874.140625-.070312.210938.046875,0,.09375,0,.140625,0c.023437.164062.050781.328124.074219.496093-.199219-.097656-.207032-.222656-.285156-.421875-.046876-.023437-.097657-.046875-.144532-.074218-.046875-.160157-.09375-.324219-.144531-.492188Zm0,0" fill="#e24715"/><path d="M0.570312,39.199219c.046876.023437.09375.046875.144532.070312-.023438.09375-.046875.1875-.070313.28125c2.914063-.003906,5.832031-.007812,8.75-.015625.34375,0,.6875,0,1.03125,0c.070313,0,.136719,0,.207031,0c1.113282-.003906,2.222657-.007812,3.332032-.007812c1.140625-.003906,2.277344-.003906,3.417968-.007813.703126,0,1.40625-.003906,2.109376-.003906.480468,0,.960937,0,1.445312-.003906.277344,0,.554688,0,.835938,0c.300781,0,.601562,0,.902343,0c.132813,0,.132813,0,.269531,0c.078126,0,.160157-.003907.242188-.003907.070312,0,.136719,0,.210938,0c.199218-.03125.261718-.082031.386718-.238281-.023437.09375-.046875.1875-.070312.28125c7.589844,0,15.179687,0,23,0c0,.023438,0,.046875,0,.070313-7.566406.023437-15.132813.046875-22.929688.074218.140625.207032.140625.207032.285156.421876-.023437.046874-.046874.09375-.070312.144531-.359375-.398438-.359375-.398438-.359375-.640625-7.636719,0-15.273437,0-23.140625,0c.023438-.136719.046875-.277344.070312-.421875Zm0,0" fill="#dbcdc2"/><path d="M23.359375,39.199219c.210937.273437.210937.273437.210937.351562-7.566406,0-15.132812,0-22.925781,0c0-.046875,0-.09375,0-.140625c7.492188,0,14.988281,0,22.714844,0c0-.070312,0-.140625,0-.210937Zm0,0" fill="#90a25f"/><path d="M24,38.773438c.023438.070312.046875.140624.070312.210937-.070312.140625-.140624.28125-.210937.425781c7.398437.023438,14.800781.046875,22.425781.070313c0,.023437,0,.046875,0,.070312-7.449218,0-14.898437,0-22.570312,0c.214844-.636719.214844-.636719.285156-.777343Zm0,0" fill="#f1e0e5"/><path d="M12.429688,20.449219c.070312.035156.070312.035156.140624.070312c0,.046875,0,.09375,0,.140625.046876,0,.09375,0,.144532,0c.140625.210938.140625.210938.140625.425782.046875,0,.09375,0,.144531,0c.214844.398437.214844.398437.214844.636718.046875,0,.09375,0,.144531,0c0,.09375,0,.1875,0,.28125.042969,0,.089844,0,.140625,0c.046875.140625.09375.28125.140625.425782.050781,0,.097656,0,.144531,0c.0625.113281.125.222656.183594.335937.035156.0625.066406.125.101562.1875.078126.199219.078126.273437,0,.464844-.164062-.242188-.210937-.332031-.210937-.632813-.050781,0-.097656,0-.144531,0c0-.046875,0-.09375,0-.144531-.046875,0-.09375,0-.144532,0-.046874-.164063-.09375-.324219-.140624-.496094-.046876,0-.09375,0-.144532,0-.214844-.398437-.214844-.398437-.214844-.632812-.046874,0-.09375,0-.140624,0c0-.09375,0-.1875,0-.285157-.046876,0-.09375,0-.144532,0c0-.046874,0-.09375,0-.140624-.046875,0-.09375,0-.140625,0c0-.070313,0-.140626,0-.214844-.050781,0-.097656,0-.144531,0-.023438-.136719-.046875-.277344-.070312-.421875Zm0,0" fill="#8aab3a"/><path d="M19.570312,32.761719c.046876,0,.09375,0,.144532,0c.046875.113281.09375.230469.140625.351562.046875,0,.097656,0,.144531,0c.222656.371094.402344.710938.5,1.132813.046875,0,.09375,0,.144531,0c0,.09375,0,.1875,0,.28125.046875,0,.09375,0,.140625,0c.074219.140625.148438.277344.21875.417968.039063.074219.082032.152344.125.230469.027344.070313.054688.132813.085938.203125-.023438.046875-.046875.089844-.070313.140625-.050781-.117187-.097656-.234375-.144531-.355469-.046875,0-.09375,0-.144531,0c0-.09375,0-.1875,0-.28125-.046875,0-.09375,0-.140625,0-.285156-.46875-.285156-.46875-.285156-.707031-.046876,0-.09375,0-.144532,0-.023437-.140625-.046875-.28125-.070312-.425781-.046875,0-.09375,0-.144532,0-.046874-.140625-.09375-.28125-.140624-.425781-.046876,0-.09375,0-.144532,0c0-.09375,0-.1875,0-.28125-.046875,0-.09375,0-.140625,0-.023437-.09375-.046875-.1875-.074219-.28125Zm0,0" fill="#87a63e"/><path d="M15.714844,26.179688c.046875,0,.09375,0,.144531,0c0,.046874,0,.09375,0,.140624.046875,0,.09375,0,.140625,0c.019531.058594.042969.113282.0625.171876.0625.191406.0625.191406.222656.253906c0,.070312,0,.140625,0,.210937.046875,0,.09375,0,.144532,0c.015624.054688.039062.105469.054687.160157.078125.195312.078125.195312.203125.332031.132812.195312.113281.339843.097656.570312.046875,0,.09375,0,.144532,0c.207031.160157.277343.253907.335937.511719.011719.097656.011719.097656.019531.195312-.046875,0-.09375,0-.140625,0-.023437-.058593-.042969-.113281-.0625-.171874-.0625-.191407-.0625-.191407-.226562-.253907c0-.070312,0-.140625,0-.210937-.046875,0-.09375,0-.140625,0-.101563-.234375-.171875-.457032-.214844-.707032-.046875,0-.09375,0-.144531,0-.019531-.058593-.039063-.113281-.0625-.171874-.058594-.191407-.058594-.191407-.222657-.253907c0-.070312,0-.140625,0-.210937-.046874,0-.09375,0-.140624,0c0-.09375,0-.1875,0-.285156-.046876,0-.097657,0-.144532,0-.023437-.09375-.046875-.183594-.070312-.28125Zm0,0" fill="#88a83c"/><path d="M49,35.519531c0,.226563-.054688.359375-.144531.566407-.046875,0-.09375,0-.140625,0c0,.046874,0,.09375,0,.140624-.046875,0-.09375,0-.144532,0-.007812.050782-.015624.097657-.023437.152344-.050781.214844-.117187.417969-.191406.625-.046875,0-.09375,0-.140625,0c0,.09375,0,.1875,0,.285156-.046875,0-.09375,0-.144532,0c0,.046876,0,.09375,0,.140626-.046874,0-.09375,0-.140624,0c0,.070312,0,.140624,0,.210937-.046876,0-.09375,0-.144532,0-.007812.046875-.015625.089844-.027344.136719-.015624.050781-.027343.097656-.042968.148437-.070313.035157-.070313.035157-.144532.070313c0-.070313,0-.140625,0-.210938.046876,0,.09375,0,.144532,0c0-.09375,0-.1875,0-.285156.046875,0,.09375,0,.140625,0c0-.070312,0-.140625,0-.210938.050781,0,.097656,0,.144531,0c0-.070312,0-.140624,0-.214843.046875,0,.09375,0,.144531,0c.007813-.039063.015625-.078125.023438-.117188.050781-.179687.117187-.347656.1875-.519531.050781,0,.097656,0,.144531,0c0-.089844,0-.183594,0-.28125.046875,0,.09375,0,.144531,0c0-.070312,0-.140625,0-.210938.046875,0,.09375,0,.140625,0c.007813-.046874.019532-.089843.027344-.136718.042969-.148438.042969-.148438.1875-.289063Zm0,0" transform="translate(0 0.000001)" fill="#ed8276"/><path d="M47.214844,38.5625c.023437.089844.046875.183594.070312.28125-.046875,0-.09375,0-.140625,0c0,.070312,0,.140625,0,.210938-.046875,0-.097656,0-.144531,0c0,.070312,0,.140624,0,.214843-.046875,0-.09375,0-.144531,0c0,.164063,0,.324219,0,.496094-.046875-.023437-.09375-.046875-.140625-.070313c0-.046874,0-.09375,0-.144531-.140625,0-.28125,0-.429688,0c.070313-.023437.140625-.046875.214844-.070312c0-.070313,0-.140625,0-.210938-.070312-.023437-.140625-.046875-.214844-.070312.023438-.09375.046875-.1875.070313-.285157.1875.21875.214843.265626.214843.566407.046876-.023438.09375-.046875.144532-.070313.046875-.144531.046875-.144531.070312-.28125.046875,0,.09375,0,.144532,0c0-.070312,0-.140625,0-.214844.046874,0,.09375,0,.140624,0c.046876-.117187.09375-.234374.144532-.351562Zm0,0" transform="translate(0 0.000001)" fill="#f0b6b0"/><path d="M36.855469,56.320312c0,.230469-.046875.339844-.140625.542969-.039063.085938-.039063.085938-.082032.175781-.03125.0625-.03125.0625-.0625.128907-.046874,0-.09375,0-.140624,0-.007813.046875-.019532.089843-.027344.132812-.046875.152344-.046875.152344-.1875.292969-.046875.148438-.046875.148438-.070313.285156-.046875,0-.09375,0-.144531,0-.023438.066406-.046875.136719-.070312.210938-.023438-.046875-.046876-.09375-.074219-.140625.128906-.246094.234375-.445313.429687-.636719.054688-.121094.109375-.242188.160156-.363281.226563-.535157.226563-.535157.410157-.628907Zm0,0" fill="#935c9d"/><path d="M18.214844,30.355469c.070312.023437.140625.046875.214844.070312.066406.144531.066406.144531.117187.320313.019531.058594.039063.117187.054687.179687.015626.042969.027344.089844.042969.136719.046875,0,.09375,0,.140625,0c0,.066406,0,.136719,0,.210938.046875,0,.09375,0,.144532,0c.046874.140624.09375.28125.140624.425781.046876,0,.09375,0,.144532,0c.023437.140625.046875.277343.070312.421875-.046875,0-.09375,0-.140625,0-.058593-.109375-.117187-.226563-.175781-.339844-.03125-.0625-.0625-.125-.097656-.191406-.085938-.175782-.085938-.175782-.15625-.386719-.046875,0-.09375,0-.144532,0-.171874-.238281-.214843-.335937-.214843-.636719-.046875,0-.09375,0-.140625,0c0-.070312,0-.140625,0-.210937Zm0,0" fill="#8aab3c"/><path d="M17.285156,28.796875c.046875,0,.09375,0,.144532,0c.015624.039063.035156.082031.054687.121094.027344.050781.050781.105469.078125.15625.023438.054687.050781.105469.074219.15625.066406.144531.066406.144531.21875.203125c0,.09375,0,.1875,0,.28125.050781,0,.097656,0,.144531,0c0,.046875,0,.09375,0,.144531.046875,0,.09375,0,.144531,0c.023438.164063.046875.324219.070313.496094-.046875-.023438-.09375-.046875-.144532-.070313c0-.046875,0-.09375,0-.144531-.046874,0-.09375,0-.140624,0c0-.09375,0-.1875,0-.28125-.046876,0-.09375,0-.144532,0c0-.070313,0-.140625,0-.214844-.046875,0-.09375,0-.140625,0-.214843-.398437-.214843-.398437-.214843-.632812-.046876,0-.09375,0-.144532,0c0-.070313,0-.140625,0-.214844Zm0,0" fill="#88a83d"/><path d="M21.785156,36.4375c.046875,0,.09375,0,.144532,0c.265624.453125.265624.453125.367187.699219.046875.164062.046875.164062.203125.222656.0625.160156.0625.160156.117188.355469.015624.066406.035156.132812.054687.199218.015625.050782.027344.101563.042969.152344-.046875,0-.09375,0-.144532,0c0-.09375,0-.1875,0-.28125-.046874,0-.09375,0-.140624,0-.144532-.214844-.144532-.214844-.144532-.425781-.046875,0-.09375,0-.140625,0-.027343-.164063-.050781-.328125-.074219-.496094-.046874,0-.09375,0-.140624,0c0-.046875,0-.09375,0-.140625-.046876,0-.09375,0-.144532,0c0-.09375,0-.1875,0-.285156Zm0,0" fill="#87a73e"/><path d="M46.5,0.210938c.117188.023437.234375.046874.355469.074218c0,.066406,0,.136719,0,.210938.050781,0,.097656,0,.144531,0-.023438.09375-.046875.1875-.070312.28125-.023438-.070313-.046876-.140625-.074219-.210938-.140625.023438-.140625.023438-.285157.070313-.023437.046875-.046874.09375-.070312.140625-.046875,0-.09375,0-.144531,0c0,.09375,0,.1875,0,.285156-.070313.023438-.140625.046875-.210938.070312.046875-.164062.09375-.328124.140625-.496093.046875,0,.09375,0,.144532,0c.023437-.140625.046874-.28125.070312-.425781Zm0,0" fill="#edbb67"/><path d="M50.144531,45.496094c.046875,0,.09375,0,.140625,0c.019532.058594.019532.058594.039063.117187.019531.050781.035156.105469.054687.15625.027344.078125.027344.078125.054688.152344.0625.164063.0625.164063.28125.28125c0,.070313,0,.140625,0,.210937.046875,0,.09375,0,.140625,0c0,.070313,0,.140626,0,.214844.046875,0,.097656,0,.144531,0c.070312.207032.140625.417969.214844.636719C51,47.195312,51,47.195312,50.878906,46.996094c-.09375-.226563-.09375-.226563-.09375-.511719-.046875,0-.09375,0-.140625,0c0-.070313,0-.140625,0-.210937-.097656-.046876-.191406-.09375-.289062-.140626c0-.070312,0-.140624,0-.214843-.046875,0-.09375,0-.140625,0-.023438-.140625-.046875-.277344-.070313-.421875Zm0,0" transform="translate(.000001 0)" fill="#ac8cbe"/><path d="M26.429688,44.433594c.214843.070312.214843.070312.335937.234375.089844.191406.089844.191406.089844.472656.050781,0,.097656,0,.144531,0c0,.070313,0,.140625,0,.214844.046875,0,.09375,0,.144531,0c.046875.101562.097657.203125.144531.308593.027344.058594.054688.113282.082032.175782.019531.046875.039062.097656.058594.148437-.023438.046875-.046876.09375-.074219.144531-.070313-.113281-.140625-.226562-.210938-.339843-.042969-.0625-.082031-.128907-.121093-.191407-.09375-.175781-.09375-.175781-.09375-.390624-.046876,0-.09375,0-.144532,0-.019531-.066407-.039062-.128907-.058594-.199219-.078124-.210938-.132812-.289063-.296874-.4375c0-.046875,0-.09375,0-.140625Zm0,0" transform="translate(.000001 0)" fill="#edcfd9"/><path d="M54.5,52.996094c.25.210937.34375.394531.429688.707031.046874,0,.09375,0,.140624,0c0,.070313,0,.140625,0,.210937.046876,0,.09375,0,.144532,0c0,.070313,0,.140626,0,.214844.046875,0,.09375,0,.140625,0c.027343.136719.050781.277344.074219.421875-.046876-.023437-.097657-.046875-.144532-.070312c0-.09375,0-.1875,0-.28125-.046875,0-.09375,0-.144531,0c0-.070313,0-.140625,0-.214844-.042969,0-.089844,0-.140625,0c0-.046875,0-.09375,0-.140625-.046875,0-.09375,0-.140625,0-.050781-.140625-.097656-.28125-.144531-.425781-.046875,0-.09375,0-.144532,0-.023437-.140625-.046874-.277344-.070312-.421875Zm0,0" transform="translate(0 0.000001)" fill="#9e78b3"/><path d="M38.855469,52.855469c.023437.09375.050781.183593.074219.28125-.046876,0-.09375,0-.144532,0c0,.046875,0,.09375,0,.140625-.046875,0-.09375,0-.140625,0c0,.070312,0,.140625,0,.210937-.046875,0-.097656,0-.144531,0-.007812.042969-.019531.082031-.027344.121094-.078125.28125-.195312.542969-.328125.800781-.046875-.023437-.097656-.046875-.144531-.070312.140625-.304688.28125-.605469.429688-.921875.046874,0,.09375,0,.140624,0c0-.070313,0-.140625,0-.210938.046876,0,.09375,0,.144532,0c0-.070312,0-.140625,0-.210937.046875,0,.09375,0,.140625,0c0-.046875,0-.09375,0-.140625Zm0,0" transform="translate(0 0.000001)" fill="#9e67a3"/><path d="M47.214844,40.542969c.25.210937.34375.394531.429687.707031.046875,0,.09375,0,.140625,0c0,.070312,0,.140625,0,.210938.046875,0,.09375,0,.144532,0c0,.070312,0,.140624,0,.214843.046874,0,.09375,0,.140624,0c.023438.140625.046876.277344.074219.421875-.046875-.023437-.097656-.046875-.144531-.070312c0-.09375,0-.1875,0-.28125-.046875,0-.09375,0-.144531,0c0-.070313,0-.140625,0-.210938-.039063-.019531-.085938-.035156-.128907-.050781-.199218-.121094-.253906-.238281-.351562-.445313-.03125-.066406-.0625-.125-.09375-.191406-.066406-.164062-.066406-.164062-.066406-.304687Zm0,0" transform="translate(.000001 0.000001)" fill="#a07bb4"/><path d="M31.855469,53.703125c.425781.339844.640625.910156.789062,1.414063-.050781-.023438-.097656-.046876-.144531-.070313c0-.070313,0-.140625,0-.210937-.046875,0-.09375,0-.144531,0-.382813-.734376-.382813-.734376-.5-1.132813Zm0,0" fill="#f1dde4"/><path d="M51.570312,31.0625c.023438.089844.046876.183594.074219.28125-.050781,0-.097656,0-.144531,0-.007812.042969-.015625.082031-.023438.125-.050781.171875-.117187.28125-.222656.425781-.03125.042969-.0625.085938-.09375.128907-.027344.035156-.058594.066406-.089844.097656-.046874,0-.09375,0-.140624,0-.023438.117187-.046876.234375-.074219.355468-.085938-.175781-.054688-.242187,0-.425781.046875,0,.097656,0,.144531,0c.019531-.050781.042969-.105469.0625-.15625.066406-.164062.140625-.320312.222656-.480469.046875,0,.09375,0,.144532,0c0-.070312,0-.140624,0-.210937.046874,0,.09375,0,.140624,0c0-.046875,0-.09375,0-.140625Zm0,0" fill="#ec7b70"/><path d="M22.714844,38.066406c.394531.238282.511718.570313.644531.988282c0,.046874,0,.09375,0,.144531-.050781,0-.097656,0-.144531,0-.023438-.164063-.046875-.328125-.070313-.496094-.074219,0-.140625,0-.214843,0-.214844-.398437-.214844-.398437-.214844-.636719Zm0,0" transform="translate(0 0.000001)" fill="#86a63c"/><path d="M28.5,31.0625c.082031.265625.082031.265625,0,.421875-.046875,0-.09375,0-.144531,0c0,.09375,0,.1875,0,.285156-.046875,0-.09375,0-.140625,0c0,.070313,0,.140625,0,.210938-.046875,0-.09375,0-.144532,0c0,.046875,0,.09375,0,.140625-.046874-.023438-.09375-.046875-.140624-.070313.054687-.109375.109374-.222656.164062-.335937.03125-.0625.0625-.125.09375-.1875.089844-.171875.191406-.316406.3125-.464844Zm0,0" fill="#d7e6b1"/><path d="M6.929688,28.300781c.046874.023438.09375.046875.140624.070313-.023437.070312-.046874.140625-.070312.214844-.046875,0-.09375,0-.144531,0-.003907.035156-.011719.074218-.019531.109374-.066407.230469-.167969.433594-.269532.652344-.058594.121094-.058594.121094-.117187.25-.03125.0625-.0625.125-.09375.191406-.046875-.023437-.09375-.046874-.140625-.074218.140625-.382813.140625-.382813.285156-.777344.046875,0,.09375,0,.144531,0c.046875-.136719.09375-.277344.140625-.421875.046875,0,.09375,0,.144532,0c0-.070313,0-.140625,0-.214844Zm0,0" fill="#bcc7a1"/><path d="M42.144531,7.855469c.078125.261719.078125.261719,0,.421875-.050781,0-.097656,0-.144531,0c0,.09375,0,.1875,0,.285156-.046875,0-.09375,0-.144531,0c0,.066406,0,.136719,0,.210938-.042969,0-.09375,0-.140625,0c0,.046874,0,.09375,0,.140624-.046875-.023437-.09375-.046874-.144532-.070312.054688-.113281.113282-.222656.164063-.335938.03125-.0625.0625-.125.09375-.1875.09375-.167968.195313-.316406.316406-.464843Zm0,0" fill="#ecb657"/><path d="M39.929688,50.945312c.046874.023438.09375.046876.140624.070313-.023437.09375-.046874.183594-.070312.28125-.046875,0-.09375,0-.144531,0c0,.070313,0,.140625,0,.214844-.046875,0-.09375,0-.140625,0-.046875.136719-.09375.277343-.144532.421875-.046874,0-.09375,0-.140624,0-.023438.09375-.046876.1875-.074219.28125-.023438-.042969-.046875-.089844-.070313-.140625.070313-.167969.070313-.167969.175782-.363281.050781-.09375.050781-.09375.101562-.191407.027344-.050781.054688-.101562.082031-.152343.046875,0,.09375,0,.140625,0c.011719-.042969.019532-.085938.03125-.132813.039063-.148437.039063-.148437.113282-.289063Zm0,0" fill="#9d67a3"/><path d="M39,13.230469c.023438.09375.046875.1875.070312.285156-.046874,0-.09375,0-.140624,0c0,.070313,0,.140625,0,.210937-.046876,0-.09375,0-.144532,0c0,.070313,0,.140626,0,.210938-.046875,0-.09375,0-.140625,0c0,.117188,0,.234375,0,.355469-.144531.070312-.144531.070312-.289062.140625.074219-.210938.144531-.421875.214843-.636719.046876,0,.09375,0,.144532,0c0-.070313,0-.140625,0-.210937.046875,0,.09375,0,.140625,0c.050781-.117188.097656-.234376.144531-.355469Zm0,0" fill="#edb85d"/><path d="M9.214844,24.480469c.046875.023437.09375.046875.140625.070312-.070313.164063-.140625.328125-.210938.496094-.046875,0-.097656,0-.144531,0c0,.09375,0,.1875,0,.285156-.046875,0-.09375,0-.144531,0c0,.046875,0,.09375,0,.140625-.046875,0-.09375,0-.140625,0-.023438.09375-.046875.1875-.070313.28125-.023437-.046875-.046875-.09375-.074219-.140625.023438-.070312.046876-.140625.074219-.210937.046875,0,.09375,0,.140625,0c.019532-.078125.039063-.15625.058594-.234375.078125-.246094.113281-.316407.300781-.472657.023438-.070312.046875-.140624.070313-.214843Zm0,0" transform="translate(0 0.000001)" fill="#a4b47f"/><path d="M45.214844,41.957031c.023437.09375.046875.1875.070312.28125-.046875,0-.09375,0-.144531,0-.007813.046875-.019531.089844-.027344.132813-.042969.152344-.042969.152344-.113281.292968-.046875,0-.09375,0-.140625,0-.03125.105469-.03125.105469-.066406.207032-.078125.21875-.078125.21875-.222657.289062.132813-.40625.132813-.40625.214844-.566406.046875,0,.09375,0,.144532,0c0-.09375,0-.1875,0-.28125.046874,0,.09375,0,.140624,0c0-.070312,0-.140625,0-.214844.046876,0,.09375,0,.144532,0c0-.046875,0-.09375,0-.140625Zm0,0" fill="#a06aa4"/><path d="M40.929688,9.976562c.085937.175782.054687.242188,0,.425782-.046876,0-.09375,0-.144532,0c0,.046875,0,.09375,0,.140625-.046875,0-.09375,0-.140625,0c0,.070312,0,.140625,0,.210937-.050781,0-.097656,0-.144531,0-.023438.09375-.046875.1875-.070312.285156-.089844-.179687-.054688-.242187,0-.425781.046874,0,.09375,0,.140624,0c0-.070312,0-.140625,0-.210937.046876,0,.09375,0,.144532,0c.019531-.058594.042968-.117188.066406-.175782.074219-.179687.074219-.179687.148438-.25Zm0,0" fill="#edba62"/><path d="M49.070312,4.316406c.320313.257813.492188.617188.644532.988282c0,.070312,0,.140624,0,.214843-.046875,0-.09375,0-.144532,0-.035156-.089843-.066406-.175781-.101562-.265625-.019531-.050781-.039062-.097656-.058594-.148437-.054687-.152344-.054687-.152344-.082031-.308594-.015625-.042969-.027344-.082031-.042969-.128906-.070312-.023438-.140625-.046875-.214844-.070313c0-.09375,0-.1875,0-.28125Zm0,0" fill="#ebb14d"/><path d="M25.640625,43.089844c.050781,0,.097656,0,.144531,0c.144532.210937.144532.210937.144532.425781.046874,0,.09375,0,.140624,0c0,.09375,0,.183594,0,.28125.046876,0,.09375,0,.144532,0c.023437.117187.046875.234375.070312.355469-.296875-.253906-.476562-.574219-.644531-.921875c0-.046875,0-.09375,0-.140625Zm0,0" fill="#eed3dc"/><path d="M52.5,29.503906c.023438.09375.046875.1875.070312.285156-.046874,0-.09375,0-.140624,0-.007813.035157-.011719.074219-.019532.113282-.070312.226562-.203125.398437-.339844.59375-.089843-.175782-.054687-.242188,0-.425782.046876,0,.09375,0,.144532,0c0-.070312,0-.140624,0-.210937.046875,0,.09375,0,.140625,0c.046875-.117187.09375-.234375.144531-.355469Zm0,0" fill="#f2a99e"/><path d="M37.929688,54.410156c.023437.09375.046874.1875.070312.285156-.046875,0-.09375,0-.144531,0-.011719.058594-.011719.058594-.023438.121094-.050781.171875-.121093.28125-.230469.425782-.046874.066406-.046874.066406-.097656.132812-.023437.03125-.050781.0625-.074218.097656-.074219-.210937-.074219-.210937-.015626-.34375.074219-.121094.152344-.242187.230469-.363281.046875,0,.09375,0,.140625,0c0-.070313,0-.140625,0-.214844.046875,0,.09375,0,.144532,0c0-.046875,0-.09375,0-.140625Zm0,0" fill="#a36ea6"/><path d="M45.570312,1.980469c.023438.046875.046876.09375.070313.140625-.066406.167968-.136719.335937-.210937.496094-.046876,0-.097657,0-.144532,0c0,.09375,0,.1875,0,.285156-.046875,0-.09375,0-.144531,0-.019531.070312-.042969.140625-.070313.210937-.023437-.046875-.046874-.09375-.070312-.140625.132812-.359375.351562-.679687.570312-.992187Zm0,0" transform="translate(.000001 0)" fill="#edb75c"/><path d="M51.5,47.832031c.070312.03125.070312.03125.144531.070313c0,.046875,0,.09375,0,.140625.046875,0,.09375,0,.140625,0c0,.046875,0,.09375,0,.140625.046875,0,.09375,0,.144532,0c.046874.210937.09375.421875.140624.636718-.046874,0-.09375,0-.140624,0-.023438-.140624-.046876-.28125-.074219-.425781-.042969,0-.09375,0-.140625,0c0-.070312,0-.136719,0-.210937-.046875,0-.09375,0-.144532,0-.023437-.117188-.046874-.234375-.070312-.351563Zm0,0" fill="#ac8cbe"/><path d="M21.214844,35.519531c.042968.054688.085937.109375.128906.167969.148438.195312.148438.195312.371094.328125.046875.21875.046875.21875.070312.421875-.046875,0-.09375,0-.140625,0c0-.066406,0-.136719,0-.210938-.050781,0-.097656,0-.144531,0-.046875-.140624-.09375-.28125-.144531-.425781-.046875,0-.09375,0-.140625,0c0-.09375,0-.183593,0-.28125Zm0,0" fill="#84a33e"/><path d="M43.640625,34.386719c.277344.234375.453125.511719.574219.847656-.023438.046875-.046875.09375-.074219.144531-.082031-.113281-.164063-.226562-.246094-.335937-.046875-.0625-.09375-.125-.140625-.191407-.113281-.183593-.113281-.183593-.113281-.464843Zm0,0" transform="translate(0 0.000001)" fill="#f3b0a5"/><path d="M14.640625,24.269531c.050781,0,.097656,0,.144531,0c0,.070313,0,.140625,0,.210938.046875,0,.09375,0,.144532,0c.070312.234375.140624.46875.210937.707031-.042969,0-.089844,0-.140625,0c0-.089844,0-.183594,0-.28125-.046875,0-.09375,0-.140625,0-.21875-.398438-.21875-.398438-.21875-.636719Zm0,0" fill="#83a03f"/><path d="M27.714844,32.265625c.046875.023437.09375.046875.140625.070313-.042969.109374-.085938.222656-.132813.335937-.023437.0625-.046875.125-.074218.1875-.066407.160156-.140626.3125-.21875.464844-.046876-.023438-.09375-.046875-.144532-.070313.09375-.257812.1875-.511718.285156-.777344.046876,0,.09375,0,.144532,0c0-.070312,0-.140624,0-.210937Zm0,0" transform="translate(.000001 0)" fill="#d3e4a9"/><path d="M29,30.140625c.089844.175781.054688.242187,0,.425781-.046875,0-.09375,0-.144531,0c0,.09375,0,.1875,0,.28125-.046875,0-.09375,0-.140625,0-.023438.070313-.046875.140625-.070313.214844-.089843-.175781-.058593-.242188,0-.425781.046875,0,.09375,0,.140625,0c0-.070313,0-.140625,0-.210938.046875,0,.09375,0,.144532,0c.023437-.09375.046874-.1875.070312-.285156Zm0,0" transform="translate(0 0.000001)" fill="#c9de94"/><path d="M52.785156,10.613281c.175782.109375.175782.109375.355469.28125.058594.265625.058594.265625.074219.496094-.070313-.046875-.140625-.09375-.214844-.140625c0-.09375,0-.1875,0-.285156-.070312-.019532-.140625-.042969-.214844-.070313c0-.09375,0-.183593,0-.28125Zm0,0" fill="#f1c987"/><path d="M43.570312,5.449219c.070313.140625.070313.140625.019532.320312-.089844.175781-.089844.175781-.304688.246094c0,.046875,0,.09375,0,.140625-.046875,0-.09375,0-.144531,0-.023437.046875-.046875.09375-.070313.140625c0-.070313,0-.140625,0-.210937.046876,0,.097657,0,.144532,0c0-.070313,0-.140626,0-.214844.046875,0,.09375,0,.144531,0c.019531-.054688.042969-.113282.066406-.171875.074219-.179688.074219-.179688.144531-.25Zm0,0" fill="#edbb66"/><path d="M25.140625,42.238281c.074219.039063.074219.039063.144531.074219c0,.046875,0,.089844,0,.140625.046875,0,.09375,0,.144532,0c.109374.199219.109374.199219.210937.425781-.019531.066406-.042969.136719-.070313.210938-.070312-.113282-.140624-.230469-.210937-.34375-.042969-.066406-.082031-.128906-.121094-.195313-.097656-.167969-.097656-.167969-.097656-.3125Zm0,0" transform="translate(0 0.000001)" fill="#efd6de"/><path d="M48.144531,42.097656c.273438.234375.449219.515625.570313.851563-.023438.046875-.046875.09375-.070313.140625-.289062-.40625-.289062-.40625-.289062-.566406-.046875,0-.09375,0-.140625,0-.023438-.140626-.046875-.28125-.070313-.425782Zm0,0" transform="translate(.000001 0)" fill="#966dac"/><path d="M44.214844,35.378906c.070312.035156.070312.035156.144531.070313c0,.046875,0,.09375,0,.140625.046875,0,.089844,0,.140625,0c0,.046875,0,.09375,0,.140625.046875,0,.09375,0,.140625,0c.027344.164062.050781.328125.074219.496093-.046875-.023437-.09375-.046874-.144532-.070312c0-.070312,0-.140625,0-.210938-.046874,0-.09375,0-.140624,0c0-.070312,0-.140624,0-.214843-.046876,0-.097657,0-.144532,0-.023437-.117188-.046875-.234375-.070312-.351563Zm0,0" fill="#ef8d82"/><path d="M50.929688,7.5c.273437.230469.449218.511719.570312.847656-.023438.046875-.046875.09375-.070312.140625-.285157-.394531-.285157-.394531-.285157-.632812-.074219-.023438-.144531-.046875-.214843-.070313c0-.09375,0-.1875,0-.285156Zm0,0" fill="#ecb352"/><path d="M14.140625,23.417969c.144531.070312.144531.070312.289063.144531c0,.089844,0,.183594,0,.28125.046874,0,.09375,0,.140624,0c.023438.117188.046876.234375.070313.355469-.046875-.023438-.089844-.046875-.140625-.070313c0-.046875,0-.09375,0-.144531-.046875,0-.09375,0-.140625,0c0-.070313,0-.140625,0-.210937-.050781,0-.097656,0-.144531,0-.023438-.117188-.046875-.234376-.074219-.355469Zm0,0" fill="#89a93d"/><path d="M55.929688,23.632812c.023437.070313.046874.140626.070312.210938-.046875.042969-.046875.042969-.09375.085938-.128906.128906-.128906.128906-.230469.3125-.105469.167968-.105469.167968-.246093.238281.023437-.09375.046874-.1875.070312-.28125.046875,0,.09375,0,.144531,0c.007813-.042969.019531-.085938.03125-.128907.03125-.125.070313-.246093.109375-.367187.046875-.023437.09375-.046875.144532-.070313Zm0,0" fill="#ec786d"/><path d="M37.5,15.777344c.09375.1875.046875.296875,0,.496094-.046875,0-.09375,0-.144531,0-.023438.09375-.046875.1875-.070313.28125-.070312,0-.140625,0-.214844,0c.144532-.253907.285157-.511719.429688-.777344Zm0,0" fill="#eaae46"/><path d="M55.429688,15.210938c.191406.179687.3125.332031.425781.566406.050781.023437.097656.046875.144531.070312-.023438.070313-.046875.140625-.070312.214844-.097657-.09375-.195313-.1875-.285157-.285156c0-.046875,0-.09375,0-.140625-.046875,0-.09375,0-.144531,0-.023438-.140625-.046875-.28125-.070312-.425781Zm0,0" fill="#edba64"/><path d="M3.070312,35.09375c.074219.140625.074219.140625.019532.304688-.089844.191406-.191406.367187-.304688.546874-.046875-.023437-.09375-.046874-.140625-.074218.054688-.113282.113281-.230469.171875-.347656.03125-.066407.066406-.128907.097656-.195313C3,35.164062,3,35.164062,3.070312,35.09375Zm0,0" fill="#92a666"/><path d="M44,4.527344c.046875.023437.09375.046875.140625.070312-.039063.117188-.082031.230469-.128906.347656-.023438.0625-.046875.125-.070313.191407-.082031.167969-.082031.167969-.300781.3125.074219-.234375.144531-.46875.21875-.710938.042969,0,.089844,0,.140625,0c0-.066406,0-.136719,0-.210937Zm0,0" fill="#eebf6e"/><path d="M31.355469,52.855469c.070312.035156.070312.035156.144531.070312c0,.046875,0,.09375,0,.140625.046875,0,.09375,0,.144531,0c.070313.210938.140625.421875.210938.636719-.261719-.128906-.34375-.394531-.441407-.660156-.019531-.0625-.039062-.125-.058593-.1875Zm0,0" fill="#f0d7e0"/><path d="M53.5,51.226562c.046875,0,.09375,0,.140625,0c0,.046876,0,.09375,0,.140626.050781,0,.097656,0,.144531,0c.070313.210937.140625.421874.214844.636718-.179688-.089844-.199219-.179687-.285156-.351562-.046875-.023438-.09375-.046875-.144532-.070313-.042968-.183593-.042968-.183593-.070312-.355469Zm0,0" fill="#c8b4d5"/><path d="M3.5,34.175781c.046875.023438.09375.046875.144531.070313-.027343.09375-.050781.1875-.074219.28125-.046874,0-.09375,0-.140624,0-.023438.070312-.042969.136718-.0625.210937-.082032.214844-.082032.214844-.222657.285157.03125-.101563.0625-.203126.097657-.304688.027343-.085938.027343-.085938.054687-.171875.058594-.160156.058594-.160156.203125-.371094Zm0,0" fill="#c0c9a5"/><path d="M27.429688,32.6875c.046874.023438.09375.046875.140624.074219-.054687.113281-.113281.230469-.167968.347656-.03125.0625-.0625.128906-.097656.195313-.089844.160156-.089844.160156-.234376.234374.023438-.140624.046876-.28125.074219-.425781.046875,0,.09375,0,.140625,0c.046875-.140625.09375-.28125.144532-.425781Zm0,0" transform="translate(.000001 0)" fill="#b1d061"/><path d="M53.140625,28.371094c.027344,0,.050781,0,.074219,0-.023438.164062-.046875.328125-.074219.496094-.070313,0-.140625,0-.210937,0-.023438.070312-.046876.140624-.070313.214843-.023437-.046875-.050781-.09375-.074219-.144531.074219-.214844.125-.273438.285156-.421875.023438-.046875.046876-.09375.070313-.144531Zm0,0" transform="translate(0 0.000001)" fill="#f2a89d"/><path d="M34.714844,20.449219c.089844.175781.054687.242187,0,.421875-.046875,0-.09375,0-.144532,0-.007812.046875-.019531.089844-.03125.132812-.039062.152344-.039062.152344-.109374.292969-.046876-.023437-.097657-.046875-.144532-.070313.058594-.117187.117188-.234374.175782-.347656.03125-.066406.0625-.132812.097656-.199218.082031-.160157.082031-.160157.15625-.230469Zm0,0" fill="#deeabf"/><path d="M55.140625,24.976562c.023437,0,.050781,0,.074219,0c0,.117188,0,.234376,0,.355469-.046875,0-.09375,0-.144532,0c0,.046875,0,.09375,0,.140625-.046874,0-.09375,0-.140624,0-.023438.070313-.046876.140625-.070313.210938-.027344-.046875-.050781-.09375-.074219-.140625.066406-.152344.066406-.152344.144532-.28125.046874,0,.09375,0,.140624,0c.023438-.09375.046876-.1875.070313-.285157Zm0,0" fill="#f2aa9f"/><path d="M34.5,58.230469c.285156.246093.402344.402343.429688.78125-.214844-.183594-.316407-.390625-.429688-.640625c0-.046875,0-.089844,0-.140625Zm0,0" fill="#efd7df"/><path d="M25.5,36.226562c.023438.09375.046875.1875.070312.285157-.046874,0-.09375,0-.140624,0c0,.066406,0,.136719,0,.210937-.046876,0-.097657,0-.144532,0c0,.046875,0,.09375,0,.140625-.046875-.023437-.09375-.046875-.144531-.070312.117187-.191407.234375-.378907.359375-.566407Zm0,0" fill="#d7e7b3"/><path d="M39.929688,28.089844c.246093.214844.339843.394531.425781.707031-.070313-.046875-.140625-.09375-.210938-.140625c0-.046875,0-.09375,0-.140625-.050781,0-.097656,0-.144531,0-.023438-.140625-.046875-.28125-.070312-.425781Zm0,0" fill="#f5c3b9"/><path d="M24.785156,41.535156c.144532.132813.246094.253906.355469.421875-.023437.15625-.023437.15625-.070313.28125-.046874-.089843-.09375-.179687-.140624-.273437-.027344-.050782-.054688-.101563-.082032-.152344-.0625-.136719-.0625-.136719-.0625-.277344Zm0,0" fill="#edd0da"/><path d="M48.355469,36.652344c.023437.046875.050781.09375.074219.140625-.023438.070312-.046876.140625-.074219.210937-.046875,0-.09375,0-.140625,0c0,.09375,0,.1875,0,.285156-.046875,0-.09375,0-.144532,0c.125-.480468.125-.480468.285157-.636718Zm0,0" fill="#f4bdb2"/></g></svg>